<?xml version="1.0" standalone="yes"?>

<svg version="1.1" viewBox="0.0 0.0 1024.0 768.0" fill="none" stroke="none" stroke-linecap="square" stroke-miterlimit="10" xmlns="http://www.w3.org/2000/svg" xmlns:xlink="http://www.w3.org/1999/xlink"><clipPath id="p.0"><path d="m0 0l1024.0 0l0 768.0l-1024.0 0l0 -768.0z" clip-rule="nonzero"></path></clipPath><g clip-path="url(#p.0)"><path fill="#000000" fill-opacity="0.0" d="m0 0l1024.0 0l0 768.0l-1024.0 0z" fill-rule="nonzero"></path><path fill="#000000" fill-opacity="0.0" d="m448.0 91.834785l0 0c0 -3.7747498 3.060028 -6.8347855 6.834778 -6.8347855l114.330444 0c1.8126831 0 3.5511475 0.7200928 4.8328857 2.0018616c1.2817993 1.2817688 2.001892 3.0202255 2.001892 4.832924l0 27.338303c0 3.7747498 -3.0600586 6.8347855 -6.834778 6.8347855l-114.330444 0c-3.7747498 0 -6.834778 -3.0600357 -6.834778 -6.8347855z" fill-rule="nonzero"></path><path stroke="#000000" stroke-width="2.0" stroke-linejoin="round" stroke-linecap="butt" d="m448.0 91.834785l0 0c0 -3.7747498 3.060028 -6.8347855 6.834778 -6.8347855l114.330444 0c1.8126831 0 3.5511475 0.7200928 4.8328857 2.0018616c1.2817993 1.2817688 2.001892 3.0202255 2.001892 4.832924l0 27.338303c0 3.7747498 -3.0600586 6.8347855 -6.834778 6.8347855l-114.330444 0c-3.7747498 0 -6.834778 -3.0600357 -6.834778 -6.8347855z" fill-rule="nonzero"></path><path fill="#000000" d="m484.23822 100.736435l0 -1.90625l1.671875 0l0 1.90625l-1.671875 0zm0 11.6875l0 -9.859375l1.671875 0l0 9.859375l-1.671875 0zm3.457306 -2.9375l1.65625 -0.265625q0.140625 1.0 0.765625 1.53125q0.640625 0.515625 1.78125 0.515625q1.15625 0 1.703125 -0.46875q0.5625 -0.46875 0.5625 -1.09375q0 -0.5625 -0.484375 -0.890625q-0.34375 -0.21875 -1.703125 -0.5625q-1.84375 -0.46875 -2.5625 -0.796875q-0.703125 -0.34375 -1.078125 -0.9375q-0.359375 -0.609375 -0.359375 -1.328125q0 -0.65625 0.296875 -1.21875q0.3125 -0.5625 0.828125 -0.9375q0.390625 -0.28125 1.0625 -0.484375q0.671875 -0.203125 1.4375 -0.203125q1.171875 0 2.046875 0.34375q0.875 0.328125 1.28125 0.90625q0.421875 0.5625 0.578125 1.515625l-1.625 0.21875q-0.109375 -0.75 -0.65625 -1.171875q-0.53125 -0.4375 -1.5 -0.4375q-1.15625 0 -1.640625 0.390625q-0.484375 0.375 -0.484375 0.875q0 0.328125 0.203125 0.59375q0.203125 0.265625 0.640625 0.4375q0.25 0.09375 1.46875 0.4375q1.765625 0.46875 2.46875 0.765625q0.703125 0.296875 1.09375 0.875q0.40625 0.578125 0.40625 1.4375q0 0.828125 -0.484375 1.578125q-0.484375 0.734375 -1.40625 1.140625q-0.921875 0.390625 -2.078125 0.390625q-1.921875 0 -2.9375 -0.796875q-1.0 -0.796875 -1.28125 -2.359375zm13.65625 1.4375l0.234375 1.484375q-0.703125 0.140625 -1.265625 0.140625q-0.90625 0 -1.40625 -0.28125q-0.5 -0.296875 -0.703125 -0.75q-0.203125 -0.46875 -0.203125 -1.984375l0 -5.65625l-1.234375 0l0 -1.3125l1.234375 0l0 -2.4375l1.65625 -1.0l0 3.4375l1.6875 0l0 1.3125l-1.6875 0l0 5.75q0 0.71875 0.078125 0.921875q0.09375 0.203125 0.296875 0.328125q0.203125 0.125 0.578125 0.125q0.265625 0 0.734375 -0.078125zm1.1364441 -2.875l1.6875 -0.140625q0.125 1.015625 0.5625 1.671875q0.4375 0.65625 1.359375 1.0625q0.9375 0.40625 2.09375 0.40625q1.03125 0 1.8125 -0.3125q0.796875 -0.3125 1.1875 -0.84375q0.390625 -0.53125 0.390625 -1.15625q0 -0.640625 -0.375 -1.109375q-0.375 -0.484375 -1.234375 -0.8125q-0.546875 -0.21875 -2.421875 -0.65625q-1.875 -0.453125 -2.625 -0.859375q-0.96875 -0.515625 -1.453125 -1.265625q-0.46875 -0.75 -0.46875 -1.6875q0 -1.03125 0.578125 -1.921875q0.59375 -0.90625 1.703125 -1.359375q1.125 -0.46875 2.5 -0.46875q1.515625 0 2.671875 0.484375q1.15625 0.484375 1.765625 1.4375q0.625 0.9375 0.671875 2.140625l-1.71875 0.125q-0.140625 -1.28125 -0.953125 -1.9375q-0.796875 -0.671875 -2.359375 -0.671875q-1.625 0 -2.375 0.609375q-0.75 0.59375 -0.75 1.4375q0 0.734375 0.53125 1.203125q0.515625 0.46875 2.703125 0.96875q2.203125 0.5 3.015625 0.875q1.1875 0.546875 1.75 1.390625q0.578125 0.828125 0.578125 1.921875q0 1.09375 -0.625 2.0625q-0.625 0.953125 -1.796875 1.484375q-1.15625 0.53125 -2.609375 0.53125q-1.84375 0 -3.09375 -0.53125q-1.25 -0.546875 -1.96875 -1.625q-0.703125 -1.078125 -0.734375 -2.453125zm12.5060425 -2.25q0 -3.390625 1.8125 -5.296875q1.828125 -1.921875 4.703125 -1.921875q1.875 0 3.390625 0.90625q1.515625 0.890625 2.296875 2.5q0.796875 1.609375 0.796875 3.65625q0 2.0625 -0.84375 3.703125q-0.828125 1.625 -2.359375 2.46875q-1.53125 0.84375 -3.296875 0.84375q-1.921875 0 -3.4375 -0.921875q-1.5 -0.9375 -2.28125 -2.53125q-0.78125 -1.609375 -0.78125 -3.40625zm1.859375 0.03125q0 2.453125 1.3125 3.875q1.328125 1.40625 3.3125 1.40625q2.03125 0 3.34375 -1.421875q1.3125 -1.4375 1.3125 -4.0625q0 -1.65625 -0.5625 -2.890625q-0.546875 -1.234375 -1.640625 -1.921875q-1.078125 -0.6875 -2.421875 -0.6875q-1.90625 0 -3.28125 1.3125q-1.375 1.3125 -1.375 4.390625zm12.5896 2.21875l1.6875 -0.140625q0.125 1.015625 0.5625 1.671875q0.4375 0.65625 1.359375 1.0625q0.9375 0.40625 2.09375 0.40625q1.03125 0 1.8125 -0.3125q0.796875 -0.3125 1.1875 -0.84375q0.390625 -0.53125 0.390625 -1.15625q0 -0.640625 -0.375 -1.109375q-0.375 -0.484375 -1.234375 -0.8125q-0.546875 -0.21875 -2.421875 -0.65625q-1.875 -0.453125 -2.625 -0.859375q-0.96875 -0.515625 -1.453125 -1.265625q-0.46875 -0.75 -0.46875 -1.6875q0 -1.03125 0.578125 -1.921875q0.59375 -0.90625 1.703125 -1.359375q1.125 -0.46875 2.5 -0.46875q1.515625 0 2.671875 0.484375q1.15625 0.484375 1.765625 1.4375q0.625 0.9375 0.671875 2.140625l-1.71875 0.125q-0.140625 -1.28125 -0.953125 -1.9375q-0.796875 -0.671875 -2.359375 -0.671875q-1.625 0 -2.375 0.609375q-0.75 0.59375 -0.75 1.4375q0 0.734375 0.53125 1.203125q0.515625 0.46875 2.703125 0.96875q2.203125 0.5 3.015625 0.875q1.1875 0.546875 1.75 1.390625q0.578125 0.828125 0.578125 1.921875q0 1.09375 -0.625 2.0625q-0.625 0.953125 -1.796875 1.484375q-1.15625 0.53125 -2.609375 0.53125q-1.84375 0 -3.09375 -0.53125q-1.25 -0.546875 -1.96875 -1.625q-0.703125 -1.078125 -0.734375 -2.453125z" fill-rule="nonzero"></path><path fill="#000000" fill-opacity="0.0" d="m282.9134 203.83478l0 0c0 -3.7747345 3.060028 -6.834778 6.834778 -6.834778l120.50366 0c1.8126831 0 3.5511475 0.7200928 4.8329163 2.0018616c1.2817688 1.2817688 2.0018616 3.020218 2.0018616 4.8329163l0 27.338318c0 3.7747345 -3.060028 6.834778 -6.834778 6.834778l-120.50366 0c-3.7747498 0 -6.834778 -3.0600433 -6.834778 -6.834778z" fill-rule="nonzero"></path><path stroke="#000000" stroke-width="2.0" stroke-linejoin="round" stroke-linecap="butt" d="m282.9134 203.83478l0 0c0 -3.7747345 3.060028 -6.834778 6.834778 -6.834778l120.50366 0c1.8126831 0 3.5511475 0.7200928 4.8329163 2.0018616c1.2817688 1.2817688 2.0018616 3.020218 2.0018616 4.8329163l0 27.338318c0 3.7747345 -3.060028 6.834778 -6.834778 6.834778l-120.50366 0c-3.7747498 0 -6.834778 -3.0600433 -6.834778 -6.834778z" fill-rule="nonzero"></path><path fill="#000000" d="m300.96298 212.73643l0 -1.90625l1.671875 0l0 1.90625l-1.671875 0zm0 11.6875l0 -9.859375l1.671875 0l0 9.859375l-1.671875 0zm4.129181 0l0 -9.859375l1.5 0l0 1.40625q1.09375 -1.625 3.140625 -1.625q0.890625 0 1.640625 0.328125q0.75 0.3125 1.109375 0.84375q0.375 0.515625 0.53125 1.21875q0.09375 0.46875 0.09375 1.625l0 6.0625l-1.671875 0l0 -6.0q0 -1.015625 -0.203125 -1.515625q-0.1875 -0.515625 -0.6875 -0.8125q-0.5 -0.296875 -1.171875 -0.296875q-1.0625 0 -1.84375 0.671875q-0.765625 0.671875 -0.765625 2.578125l0 5.375l-1.671875 0zm9.703857 -2.9375l1.65625 -0.265625q0.140625 1.0 0.765625 1.53125q0.640625 0.515625 1.78125 0.515625q1.15625 0 1.703125 -0.46875q0.5625 -0.46875 0.5625 -1.09375q0 -0.5625 -0.484375 -0.890625q-0.34375 -0.21875 -1.703125 -0.5625q-1.84375 -0.46875 -2.5625 -0.796875q-0.703125 -0.34375 -1.078125 -0.9375q-0.359375 -0.609375 -0.359375 -1.328125q0 -0.65625 0.296875 -1.21875q0.3125 -0.5625 0.828125 -0.9375q0.390625 -0.28125 1.0625 -0.484375q0.671875 -0.203125 1.4375 -0.203125q1.171875 0 2.046875 0.34375q0.875 0.328125 1.28125 0.90625q0.421875 0.5625 0.578125 1.515625l-1.625 0.21875q-0.109375 -0.75 -0.65625 -1.171875q-0.53125 -0.4375 -1.5 -0.4375q-1.15625 0 -1.640625 0.390625q-0.484375 0.375 -0.484375 0.875q0 0.328125 0.203125 0.59375q0.203125 0.265625 0.640625 0.4375q0.25 0.09375 1.46875 0.4375q1.765625 0.46875 2.46875 0.765625q0.703125 0.296875 1.09375 0.875q0.40625 0.578125 0.40625 1.4375q0 0.828125 -0.484375 1.578125q-0.484375 0.734375 -1.40625 1.140625q-0.921875 0.390625 -2.078125 0.390625q-1.921875 0 -2.9375 -0.796875q-1.0 -0.796875 -1.28125 -2.359375zm13.65625 1.4375l0.234375 1.484375q-0.703125 0.140625 -1.265625 0.140625q-0.90625 0 -1.40625 -0.28125q-0.5 -0.296875 -0.703125 -0.75q-0.203125 -0.46875 -0.203125 -1.984375l0 -5.65625l-1.234375 0l0 -1.3125l1.234375 0l0 -2.4375l1.65625 -1.0l0 3.4375l1.6875 0l0 1.3125l-1.6875 0l0 5.75q0 0.71875 0.078125 0.921875q0.09375 0.203125 0.296875 0.328125q0.203125 0.125 0.578125 0.125q0.265625 0 0.734375 -0.078125zm7.9645386 0.28125q-0.9375 0.796875 -1.796875 1.125q-0.859375 0.3125 -1.84375 0.3125q-1.609375 0 -2.484375 -0.78125q-0.875 -0.796875 -0.875 -2.03125q0 -0.734375 0.328125 -1.328125q0.328125 -0.59375 0.859375 -0.953125q0.53125 -0.359375 1.203125 -0.546875q0.5 -0.140625 1.484375 -0.25q2.03125 -0.25 2.984375 -0.578125q0 -0.34375 0 -0.4375q0 -1.015625 -0.46875 -1.4375q-0.640625 -0.5625 -1.90625 -0.5625q-1.171875 0 -1.734375 0.40625q-0.5625 0.40625 -0.828125 1.46875l-1.640625 -0.234375q0.234375 -1.046875 0.734375 -1.6875q0.515625 -0.640625 1.46875 -0.984375q0.96875 -0.359375 2.25 -0.359375q1.265625 0 2.046875 0.296875q0.78125 0.296875 1.15625 0.75q0.375 0.453125 0.515625 1.140625q0.09375 0.421875 0.09375 1.53125l0 2.234375q0 2.328125 0.09375 2.953125q0.109375 0.609375 0.4375 1.171875l-1.75 0q-0.265625 -0.515625 -0.328125 -1.21875zm-0.140625 -3.71875q-0.90625 0.359375 -2.734375 0.625q-1.03125 0.140625 -1.453125 0.328125q-0.421875 0.1875 -0.65625 0.546875q-0.234375 0.359375 -0.234375 0.796875q0 0.671875 0.5 1.125q0.515625 0.4375 1.484375 0.4375q0.96875 0 1.71875 -0.421875q0.75 -0.4375 1.109375 -1.15625q0.265625 -0.578125 0.265625 -1.671875l0 -0.609375zm4.0788574 4.9375l0 -9.859375l1.5 0l0 1.40625q1.09375 -1.625 3.140625 -1.625q0.890625 0 1.640625 0.328125q0.75 0.3125 1.109375 0.84375q0.375 0.515625 0.53125 1.21875q0.09375 0.46875 0.09375 1.625l0 6.0625l-1.671875 0l0 -6.0q0 -1.015625 -0.203125 -1.515625q-0.1875 -0.515625 -0.6875 -0.8125q-0.5 -0.296875 -1.171875 -0.296875q-1.0625 0 -1.84375 0.671875q-0.765625 0.671875 -0.765625 2.578125l0 5.375l-1.671875 0zm16.813232 -3.609375l1.640625 0.21875q-0.265625 1.6875 -1.375 2.65625q-1.109375 0.953125 -2.734375 0.953125q-2.015625 0 -3.25 -1.3125q-1.21875 -1.328125 -1.21875 -3.796875q0 -1.59375 0.515625 -2.78125q0.53125 -1.203125 1.609375 -1.796875q1.09375 -0.609375 2.359375 -0.609375q1.609375 0 2.625 0.8125q1.015625 0.8125 1.3125 2.3125l-1.625 0.25q-0.234375 -1.0 -0.828125 -1.5q-0.59375 -0.5 -1.421875 -0.5q-1.265625 0 -2.0625 0.90625q-0.78125 0.90625 -0.78125 2.859375q0 1.984375 0.765625 2.890625q0.765625 0.890625 1.984375 0.890625q0.984375 0 1.640625 -0.59375q0.65625 -0.609375 0.84375 -1.859375zm9.640625 0.4375l1.71875 0.21875q-0.40625 1.5 -1.515625 2.34375q-1.09375 0.828125 -2.8125 0.828125q-2.15625 0 -3.421875 -1.328125q-1.265625 -1.328125 -1.265625 -3.734375q0 -2.484375 1.265625 -3.859375q1.28125 -1.375 3.328125 -1.375q1.984375 0 3.234375 1.34375q1.25 1.34375 1.25 3.796875q0 0.140625 -0.015625 0.4375l-7.34375 0q0.09375 1.625 0.921875 2.484375q0.828125 0.859375 2.0625 0.859375q0.90625 0 1.546875 -0.46875q0.65625 -0.484375 1.046875 -1.546875zm-5.484375 -2.703125l5.5 0q-0.109375 -1.234375 -0.625 -1.859375q-0.796875 -0.96875 -2.078125 -0.96875q-1.140625 0 -1.9375 0.78125q-0.78125 0.765625 -0.859375 2.046875zm14.699646 5.875l0 -8.546875l-1.484375 0l0 -1.3125l1.484375 0l0 -1.046875q0 -0.984375 0.171875 -1.46875q0.234375 -0.65625 0.84375 -1.046875q0.609375 -0.40625 1.703125 -0.40625q0.703125 0 1.5625 0.15625l-0.25 1.46875q-0.515625 -0.09375 -0.984375 -0.09375q-0.765625 0 -1.078125 0.328125q-0.3125 0.3125 -0.3125 1.203125l0 0.90625l1.921875 0l0 1.3125l-1.921875 0l0 8.546875l-1.65625 0zm4.1520386 -4.921875q0 -2.734375 1.53125 -4.0625q1.265625 -1.09375 3.09375 -1.09375q2.03125 0 3.3125 1.34375q1.296875 1.328125 1.296875 3.671875q0 1.90625 -0.578125 3.0q-0.5625 1.078125 -1.65625 1.6875q-1.078125 0.59375 -2.375 0.59375q-2.0625 0 -3.34375 -1.328125q-1.28125 -1.328125 -1.28125 -3.8125zm1.71875 0q0 1.890625 0.828125 2.828125q0.828125 0.9375 2.078125 0.9375q1.25 0 2.0625 -0.9375q0.828125 -0.953125 0.828125 -2.890625q0 -1.828125 -0.828125 -2.765625q-0.828125 -0.9375 -2.0625 -0.9375q-1.25 0 -2.078125 0.9375q-0.828125 0.9375 -0.828125 2.828125zm8.656982 0q0 -2.734375 1.53125 -4.0625q1.265625 -1.09375 3.09375 -1.09375q2.03125 0 3.3125 1.34375q1.296875 1.328125 1.296875 3.671875q0 1.90625 -0.578125 3.0q-0.5625 1.078125 -1.65625 1.6875q-1.078125 0.59375 -2.375 0.59375q-2.0625 0 -3.34375 -1.328125q-1.28125 -1.328125 -1.28125 -3.8125zm1.71875 0q0 1.890625 0.828125 2.828125q0.828125 0.9375 2.078125 0.9375q1.25 0 2.0625 -0.9375q0.828125 -0.953125 0.828125 -2.890625q0 -1.828125 -0.828125 -2.765625q-0.828125 -0.9375 -2.0625 -0.9375q-1.25 0 -2.078125 0.9375q-0.828125 0.9375 -0.828125 2.828125z" fill-rule="nonzero"></path><path fill="#000000" fill-opacity="0.0" d="m444.91257 203.83478l0 0c0 -3.7747345 3.060028 -6.834778 6.834778 -6.834778l120.50369 0c1.8126831 0 3.5511475 0.7200928 4.8328857 2.0018616c1.2817993 1.2817688 2.001892 3.020218 2.001892 4.8329163l0 27.338318c0 3.7747345 -3.0600586 6.834778 -6.834778 6.834778l-120.50369 0c-3.7747498 0 -6.834778 -3.0600433 -6.834778 -6.834778z" fill-rule="nonzero"></path><path stroke="#000000" stroke-width="2.0" stroke-linejoin="round" stroke-linecap="butt" d="m444.91257 203.83478l0 0c0 -3.7747345 3.060028 -6.834778 6.834778 -6.834778l120.50369 0c1.8126831 0 3.5511475 0.7200928 4.8328857 2.0018616c1.2817993 1.2817688 2.001892 3.020218 2.001892 4.8329163l0 27.338318c0 3.7747345 -3.0600586 6.834778 -6.834778 6.834778l-120.50369 0c-3.7747498 0 -6.834778 -3.0600433 -6.834778 -6.834778z" fill-rule="nonzero"></path><path fill="#000000" d="m462.44748 212.73643l0 -1.90625l1.671875 0l0 1.90625l-1.671875 0zm0 11.6875l0 -9.859375l1.671875 0l0 9.859375l-1.671875 0zm4.129181 0l0 -9.859375l1.5 0l0 1.40625q1.09375 -1.625 3.140625 -1.625q0.890625 0 1.640625 0.328125q0.75 0.3125 1.109375 0.84375q0.375 0.515625 0.53125 1.21875q0.09375 0.46875 0.09375 1.625l0 6.0625l-1.671875 0l0 -6.0q0 -1.015625 -0.203125 -1.515625q-0.1875 -0.515625 -0.6875 -0.8125q-0.5 -0.296875 -1.171875 -0.296875q-1.0625 0 -1.84375 0.671875q-0.765625 0.671875 -0.765625 2.578125l0 5.375l-1.671875 0zm9.703857 -2.9375l1.65625 -0.265625q0.140625 1.0 0.765625 1.53125q0.640625 0.515625 1.78125 0.515625q1.15625 0 1.703125 -0.46875q0.5625 -0.46875 0.5625 -1.09375q0 -0.5625 -0.484375 -0.890625q-0.34375 -0.21875 -1.703125 -0.5625q-1.84375 -0.46875 -2.5625 -0.796875q-0.703125 -0.34375 -1.078125 -0.9375q-0.359375 -0.609375 -0.359375 -1.328125q0 -0.65625 0.296875 -1.21875q0.3125 -0.5625 0.828125 -0.9375q0.390625 -0.28125 1.0625 -0.484375q0.671875 -0.203125 1.4375 -0.203125q1.171875 0 2.046875 0.34375q0.875 0.328125 1.28125 0.90625q0.421875 0.5625 0.578125 1.515625l-1.625 0.21875q-0.109375 -0.75 -0.65625 -1.171875q-0.53125 -0.4375 -1.5 -0.4375q-1.15625 0 -1.640625 0.390625q-0.484375 0.375 -0.484375 0.875q0 0.328125 0.203125 0.59375q0.203125 0.265625 0.640625 0.4375q0.25 0.09375 1.46875 0.4375q1.765625 0.46875 2.46875 0.765625q0.703125 0.296875 1.09375 0.875q0.40625 0.578125 0.40625 1.4375q0 0.828125 -0.484375 1.578125q-0.484375 0.734375 -1.40625 1.140625q-0.921875 0.390625 -2.078125 0.390625q-1.921875 0 -2.9375 -0.796875q-1.0 -0.796875 -1.28125 -2.359375zm13.65625 1.4375l0.234375 1.484375q-0.703125 0.140625 -1.265625 0.140625q-0.90625 0 -1.40625 -0.28125q-0.5 -0.296875 -0.703125 -0.75q-0.203125 -0.46875 -0.203125 -1.984375l0 -5.65625l-1.234375 0l0 -1.3125l1.234375 0l0 -2.4375l1.65625 -1.0l0 3.4375l1.6875 0l0 1.3125l-1.6875 0l0 5.75q0 0.71875 0.078125 0.921875q0.09375 0.203125 0.296875 0.328125q0.203125 0.125 0.578125 0.125q0.265625 0 0.734375 -0.078125zm7.9645386 0.28125q-0.9375 0.796875 -1.796875 1.125q-0.859375 0.3125 -1.84375 0.3125q-1.609375 0 -2.484375 -0.78125q-0.875 -0.796875 -0.875 -2.03125q0 -0.734375 0.328125 -1.328125q0.328125 -0.59375 0.859375 -0.953125q0.53125 -0.359375 1.203125 -0.546875q0.5 -0.140625 1.484375 -0.25q2.03125 -0.25 2.984375 -0.578125q0 -0.34375 0 -0.4375q0 -1.015625 -0.46875 -1.4375q-0.640625 -0.5625 -1.90625 -0.5625q-1.171875 0 -1.734375 0.40625q-0.5625 0.40625 -0.828125 1.46875l-1.640625 -0.234375q0.234375 -1.046875 0.734375 -1.6875q0.515625 -0.640625 1.46875 -0.984375q0.96875 -0.359375 2.25 -0.359375q1.265625 0 2.046875 0.296875q0.78125 0.296875 1.15625 0.75q0.375 0.453125 0.515625 1.140625q0.09375 0.421875 0.09375 1.53125l0 2.234375q0 2.328125 0.09375 2.953125q0.109375 0.609375 0.4375 1.171875l-1.75 0q-0.265625 -0.515625 -0.328125 -1.21875zm-0.140625 -3.71875q-0.90625 0.359375 -2.734375 0.625q-1.03125 0.140625 -1.453125 0.328125q-0.421875 0.1875 -0.65625 0.546875q-0.234375 0.359375 -0.234375 0.796875q0 0.671875 0.5 1.125q0.515625 0.4375 1.484375 0.4375q0.96875 0 1.71875 -0.421875q0.75 -0.4375 1.109375 -1.15625q0.265625 -0.578125 0.265625 -1.671875l0 -0.609375zm4.0788574 4.9375l0 -9.859375l1.5 0l0 1.40625q1.09375 -1.625 3.140625 -1.625q0.890625 0 1.640625 0.328125q0.75 0.3125 1.109375 0.84375q0.375 0.515625 0.53125 1.21875q0.09375 0.46875 0.09375 1.625l0 6.0625l-1.671875 0l0 -6.0q0 -1.015625 -0.203125 -1.515625q-0.1875 -0.515625 -0.6875 -0.8125q-0.5 -0.296875 -1.171875 -0.296875q-1.0625 0 -1.84375 0.671875q-0.765625 0.671875 -0.765625 2.578125l0 5.375l-1.671875 0zm16.813232 -3.609375l1.640625 0.21875q-0.265625 1.6875 -1.375 2.65625q-1.109375 0.953125 -2.734375 0.953125q-2.015625 0 -3.25 -1.3125q-1.2187805 -1.328125 -1.2187805 -3.796875q0 -1.59375 0.5156555 -2.78125q0.53125 -1.203125 1.609375 -1.796875q1.09375 -0.609375 2.359375 -0.609375q1.609375 0 2.625 0.8125q1.015625 0.8125 1.3125 2.3125l-1.625 0.25q-0.234375 -1.0 -0.828125 -1.5q-0.59375 -0.5 -1.421875 -0.5q-1.265625 0 -2.0625 0.90625q-0.78125 0.90625 -0.78125 2.859375q0 1.984375 0.765625 2.890625q0.765625 0.890625 1.984375 0.890625q0.984375 0 1.640625 -0.59375q0.65625 -0.609375 0.84375 -1.859375zm9.640625 0.4375l1.71875 0.21875q-0.40625 1.5 -1.515625 2.34375q-1.09375 0.828125 -2.8125 0.828125q-2.15625 0 -3.421875 -1.328125q-1.265625 -1.328125 -1.265625 -3.734375q0 -2.484375 1.265625 -3.859375q1.28125 -1.375 3.328125 -1.375q1.984375 0 3.234375 1.34375q1.25 1.34375 1.25 3.796875q0 0.140625 -0.015625 0.4375l-7.34375 0q0.09375 1.625 0.921875 2.484375q0.828125 0.859375 2.0625 0.859375q0.90625 0 1.546875 -0.46875q0.65625 -0.484375 1.046875 -1.546875zm-5.484375 -2.703125l5.5 0q-0.109375 -1.234375 -0.625 -1.859375q-0.796875 -0.96875 -2.078125 -0.96875q-1.140625 0 -1.9375 0.78125q-0.78125 0.765625 -0.859375 2.046875zm15.840271 5.875l-1.546875 0l0 -13.59375l1.65625 0l0 4.84375q1.0625 -1.328125 2.703125 -1.328125q0.90625 0 1.71875 0.375q0.8125 0.359375 1.328125 1.03125q0.53125 0.65625 0.828125 1.59375q0.296875 0.9375 0.296875 2.0q0 2.53125 -1.25 3.921875q-1.25 1.375 -3.0 1.375q-1.75 0 -2.734375 -1.453125l0 1.234375zm-0.015625 -5.0q0 1.765625 0.46875 2.5625q0.796875 1.28125 2.140625 1.28125q1.09375 0 1.890625 -0.9375q0.796875 -0.953125 0.796875 -2.84375q0 -1.921875 -0.765625 -2.84375q-0.765625 -0.921875 -1.84375 -0.921875q-1.09375 0 -1.890625 0.953125q-0.796875 0.953125 -0.796875 2.75zm15.281921 3.78125q-0.9375 0.796875 -1.796875 1.125q-0.859375 0.3125 -1.84375 0.3125q-1.609375 0 -2.484375 -0.78125q-0.875 -0.796875 -0.875 -2.03125q0 -0.734375 0.328125 -1.328125q0.328125 -0.59375 0.859375 -0.953125q0.53125 -0.359375 1.203125 -0.546875q0.5 -0.140625 1.484375 -0.25q2.03125 -0.25 2.984375 -0.578125q0 -0.34375 0 -0.4375q0 -1.015625 -0.46875 -1.4375q-0.640625 -0.5625 -1.90625 -0.5625q-1.171875 0 -1.734375 0.40625q-0.5625 0.40625 -0.828125 1.46875l-1.640625 -0.234375q0.234375 -1.046875 0.734375 -1.6875q0.515625 -0.640625 1.46875 -0.984375q0.96875 -0.359375 2.25 -0.359375q1.265625 0 2.046875 0.296875q0.78125 0.296875 1.15625 0.75q0.375 0.453125 0.515625 1.140625q0.09375 0.421875 0.09375 1.53125l0 2.234375q0 2.328125 0.09375 2.953125q0.109375 0.609375 0.4375 1.171875l-1.75 0q-0.265625 -0.515625 -0.328125 -1.21875zm-0.140625 -3.71875q-0.90625 0.359375 -2.734375 0.625q-1.03125 0.140625 -1.453125 0.328125q-0.421875 0.1875 -0.65625 0.546875q-0.234375 0.359375 -0.234375 0.796875q0 0.671875 0.5 1.125q0.515625 0.4375 1.484375 0.4375q0.96875 0 1.71875 -0.421875q0.75 -0.4375 1.109375 -1.15625q0.265625 -0.578125 0.265625 -1.671875l0 -0.609375zm4.0632324 4.9375l0 -9.859375l1.5 0l0 1.5q0.578125 -1.046875 1.0625 -1.375q0.484375 -0.34375 1.078125 -0.34375q0.84375 0 1.71875 0.546875l-0.578125 1.546875q-0.609375 -0.359375 -1.234375 -0.359375q-0.546875 0 -0.984375 0.328125q-0.421875 0.328125 -0.609375 0.90625q-0.28125 0.890625 -0.28125 1.953125l0 5.15625l-1.671875 0z" fill-rule="nonzero"></path><path fill="#000000" fill-opacity="0.0" d="m610.0 203.83478l0 0c0 -3.7747345 3.0600586 -6.834778 6.834778 -6.834778l114.330444 0c1.8126831 0 3.5511475 0.7200928 4.8328857 2.0018616c1.2817993 1.2817688 2.001892 3.020218 2.001892 4.8329163l0 27.338318c0 3.7747345 -3.0600586 6.834778 -6.834778 6.834778l-114.330444 0c-3.7747192 0 -6.834778 -3.0600433 -6.834778 -6.834778z" fill-rule="nonzero"></path><path stroke="#000000" stroke-width="2.0" stroke-linejoin="round" stroke-linecap="butt" d="m610.0 203.83478l0 0c0 -3.7747345 3.0600586 -6.834778 6.834778 -6.834778l114.330444 0c1.8126831 0 3.5511475 0.7200928 4.8328857 2.0018616c1.2817993 1.2817688 2.001892 3.020218 2.001892 4.8329163l0 27.338318c0 3.7747345 -3.0600586 6.834778 -6.834778 6.834778l-114.330444 0c-3.7747192 0 -6.834778 -3.0600433 -6.834778 -6.834778z" fill-rule="nonzero"></path><path fill="#000000" d="m632.7425 212.73643l0 -1.90625l1.671875 0l0 1.90625l-1.671875 0zm0 11.6875l0 -9.859375l1.671875 0l0 9.859375l-1.671875 0zm4.1292114 0l0 -9.859375l1.5 0l0 1.40625q1.09375 -1.625 3.140625 -1.625q0.890625 0 1.640625 0.328125q0.75 0.3125 1.109375 0.84375q0.375 0.515625 0.53125 1.21875q0.09375 0.46875 0.09375 1.625l0 6.0625l-1.671875 0l0 -6.0q0 -1.015625 -0.203125 -1.515625q-0.1875 -0.515625 -0.6875 -0.8125q-0.5 -0.296875 -1.171875 -0.296875q-1.0625 0 -1.84375 0.671875q-0.765625 0.671875 -0.765625 2.578125l0 5.375l-1.671875 0zm9.703857 -2.9375l1.65625 -0.265625q0.140625 1.0 0.765625 1.53125q0.640625 0.515625 1.78125 0.515625q1.15625 0 1.703125 -0.46875q0.5625 -0.46875 0.5625 -1.09375q0 -0.5625 -0.484375 -0.890625q-0.34375 -0.21875 -1.703125 -0.5625q-1.84375 -0.46875 -2.5625 -0.796875q-0.703125 -0.34375 -1.078125 -0.9375q-0.359375 -0.609375 -0.359375 -1.328125q0 -0.65625 0.296875 -1.21875q0.3125 -0.5625 0.828125 -0.9375q0.390625 -0.28125 1.0625 -0.484375q0.671875 -0.203125 1.4375 -0.203125q1.171875 0 2.046875 0.34375q0.875 0.328125 1.28125 0.90625q0.421875 0.5625 0.578125 1.515625l-1.625 0.21875q-0.109375 -0.75 -0.65625 -1.171875q-0.53125 -0.4375 -1.5 -0.4375q-1.15625 0 -1.640625 0.390625q-0.484375 0.375 -0.484375 0.875q0 0.328125 0.203125 0.59375q0.203125 0.265625 0.640625 0.4375q0.25 0.09375 1.46875 0.4375q1.765625 0.46875 2.46875 0.765625q0.703125 0.296875 1.09375 0.875q0.40625 0.578125 0.40625 1.4375q0 0.828125 -0.484375 1.578125q-0.484375 0.734375 -1.40625 1.140625q-0.921875 0.390625 -2.078125 0.390625q-1.921875 0 -2.9375 -0.796875q-1.0 -0.796875 -1.28125 -2.359375zm13.65625 1.4375l0.234375 1.484375q-0.703125 0.140625 -1.265625 0.140625q-0.90625 0 -1.40625 -0.28125q-0.5 -0.296875 -0.703125 -0.75q-0.203125 -0.46875 -0.203125 -1.984375l0 -5.65625l-1.234375 0l0 -1.3125l1.234375 0l0 -2.4375l1.65625 -1.0l0 3.4375l1.6875 0l0 1.3125l-1.6875 0l0 5.75q0 0.71875 0.078125 0.921875q0.09375 0.203125 0.296875 0.328125q0.203125 0.125 0.578125 0.125q0.265625 0 0.734375 -0.078125zm7.9645386 0.28125q-0.9375 0.796875 -1.796875 1.125q-0.859375 0.3125 -1.84375 0.3125q-1.609375 0 -2.484375 -0.78125q-0.875 -0.796875 -0.875 -2.03125q0 -0.734375 0.328125 -1.328125q0.328125 -0.59375 0.859375 -0.953125q0.53125 -0.359375 1.203125 -0.546875q0.5 -0.140625 1.484375 -0.25q2.03125 -0.25 2.984375 -0.578125q0 -0.34375 0 -0.4375q0 -1.015625 -0.46875 -1.4375q-0.640625 -0.5625 -1.90625 -0.5625q-1.171875 0 -1.734375 0.40625q-0.5625 0.40625 -0.828125 1.46875l-1.640625 -0.234375q0.234375 -1.046875 0.734375 -1.6875q0.515625 -0.640625 1.46875 -0.984375q0.96875 -0.359375 2.25 -0.359375q1.265625 0 2.046875 0.296875q0.78125 0.296875 1.15625 0.75q0.375 0.453125 0.515625 1.140625q0.09375 0.421875 0.09375 1.53125l0 2.234375q0 2.328125 0.09375 2.953125q0.109375 0.609375 0.4375 1.171875l-1.75 0q-0.265625 -0.515625 -0.328125 -1.21875zm-0.140625 -3.71875q-0.90625 0.359375 -2.734375 0.625q-1.03125 0.140625 -1.453125 0.328125q-0.421875 0.1875 -0.65625 0.546875q-0.234375 0.359375 -0.234375 0.796875q0 0.671875 0.5 1.125q0.515625 0.4375 1.484375 0.4375q0.96875 0 1.71875 -0.421875q0.75 -0.4375 1.109375 -1.15625q0.265625 -0.578125 0.265625 -1.671875l0 -0.609375zm4.0788574 4.9375l0 -9.859375l1.5 0l0 1.40625q1.09375 -1.625 3.140625 -1.625q0.890625 0 1.640625 0.328125q0.75 0.3125 1.109375 0.84375q0.375 0.515625 0.53125 1.21875q0.09375 0.46875 0.09375 1.625l0 6.0625l-1.671875 0l0 -6.0q0 -1.015625 -0.203125 -1.515625q-0.1875 -0.515625 -0.6875 -0.8125q-0.5 -0.296875 -1.171875 -0.296875q-1.0625 0 -1.84375 0.671875q-0.765625 0.671875 -0.765625 2.578125l0 5.375l-1.671875 0zm16.813171 -3.609375l1.640625 0.21875q-0.265625 1.6875 -1.375 2.65625q-1.109375 0.953125 -2.734375 0.953125q-2.015625 0 -3.25 -1.3125q-1.21875 -1.328125 -1.21875 -3.796875q0 -1.59375 0.515625 -2.78125q0.53125 -1.203125 1.609375 -1.796875q1.09375 -0.609375 2.359375 -0.609375q1.609375 0 2.625 0.8125q1.015625 0.8125 1.3125 2.3125l-1.625 0.25q-0.234375 -1.0 -0.828125 -1.5q-0.59375 -0.5 -1.421875 -0.5q-1.265625 0 -2.0625 0.90625q-0.78125 0.90625 -0.78125 2.859375q0 1.984375 0.765625 2.890625q0.765625 0.890625 1.984375 0.890625q0.984375 0 1.640625 -0.59375q0.65625 -0.609375 0.84375 -1.859375zm9.640625 0.4375l1.71875 0.21875q-0.40625 1.5 -1.515625 2.34375q-1.09375 0.828125 -2.8125 0.828125q-2.15625 0 -3.421875 -1.328125q-1.265625 -1.328125 -1.265625 -3.734375q0 -2.484375 1.265625 -3.859375q1.28125 -1.375 3.328125 -1.375q1.984375 0 3.234375 1.34375q1.25 1.34375 1.25 3.796875q0 0.140625 -0.015625 0.4375l-7.34375 0q0.09375 1.625 0.921875 2.484375q0.828125 0.859375 2.0625 0.859375q0.90625 0 1.546875 -0.46875q0.65625 -0.484375 1.046875 -1.546875zm-5.484375 -2.703125l5.5 0q-0.109375 -1.234375 -0.625 -1.859375q-0.796875 -0.96875 -2.078125 -0.96875q-1.140625 0 -1.9375 0.78125q-0.78125 0.765625 -0.859375 2.046875zm14.293396 5.875l0 -9.859375l1.5 0l0 1.40625q1.09375 -1.625 3.140625 -1.625q0.890625 0 1.640625 0.328125q0.75 0.3125 1.109375 0.84375q0.375 0.515625 0.53125 1.21875q0.09375 0.46875 0.09375 1.625l0 6.0625l-1.671875 0l0 -6.0q0 -1.015625 -0.203125 -1.515625q-0.1875 -0.515625 -0.6875 -0.8125q-0.5 -0.296875 -1.171875 -0.296875q-1.0625 0 -1.84375 0.671875q-0.765625 0.671875 -0.765625 2.578125l0 5.375l-1.671875 0z" fill-rule="nonzero"></path><path fill="#000000" fill-opacity="0.0" d="m373.00787 452.98425l0 0c0 7.7319946 25.516235 14.0 56.992126 14.0c31.475891 0 56.992126 -6.2680054 56.992126 -14.0l0 84.0c0 7.7319946 -25.516235 14.0 -56.992126 14.0c-31.475891 0 -56.992126 -6.2680054 -56.992126 -14.0z" fill-rule="nonzero"></path><path fill="#000000" fill-opacity="0.0" d="m373.00787 452.98425l0 0c0 -7.7319946 25.516235 -14.0 56.992126 -14.0c31.475891 0 56.992126 6.2680054 56.992126 14.0l0 0c0 7.7319946 -25.516235 14.0 -56.992126 14.0c-31.475891 0 -56.992126 -6.2680054 -56.992126 -14.0z" fill-rule="nonzero"></path><path fill="#000000" fill-opacity="0.0" d="m486.99213 452.98425l0 0c0 7.7319946 -25.516235 14.0 -56.992126 14.0c-31.475891 0 -56.992126 -6.2680054 -56.992126 -14.0l0 0c0 -7.7319946 25.516235 -14.0 56.992126 -14.0c31.475891 0 56.992126 6.2680054 56.992126 14.0l0 84.0c0 7.7319946 -25.516235 14.0 -56.992126 14.0c-31.475891 0 -56.992126 -6.2680054 -56.992126 -14.0l0 -84.0" fill-rule="nonzero"></path><path fill="#ffffff" fill-opacity="0.4" d="m373.00787 452.98425l0 0c0 -7.7319946 25.516235 -14.0 56.992126 -14.0c31.475891 0 56.992126 6.2680054 56.992126 14.0l0 0c0 7.7319946 -25.516235 14.0 -56.992126 14.0c-31.475891 0 -56.992126 -6.2680054 -56.992126 -14.0z" fill-rule="nonzero"></path><path stroke="#000000" stroke-width="2.0" stroke-linejoin="round" stroke-linecap="butt" d="m486.99213 452.98425l0 0c0 7.7319946 -25.516235 14.0 -56.992126 14.0c-31.475891 0 -56.992126 -6.2680054 -56.992126 -14.0l0 0c0 -7.7319946 25.516235 -14.0 56.992126 -14.0c31.475891 0 56.992126 6.2680054 56.992126 14.0l0 84.0c0 7.7319946 -25.516235 14.0 -56.992126 14.0c-31.475891 0 -56.992126 -6.2680054 -56.992126 -14.0l0 -84.0" fill-rule="nonzero"></path><path fill="#000000" d="m402.23822 486.21674l0 -1.90625l1.671875 0l0 1.90625l-1.671875 0zm0 11.6875l0 -9.859375l1.671875 0l0 9.859375l-1.671875 0zm3.457306 -2.9375l1.65625 -0.265625q0.140625 1.0 0.765625 1.53125q0.640625 0.515625 1.78125 0.515625q1.15625 0 1.703125 -0.46875q0.5625 -0.46875 0.5625 -1.09375q0 -0.5625 -0.484375 -0.890625q-0.34375 -0.21875 -1.703125 -0.5625q-1.84375 -0.46875 -2.5625 -0.796875q-0.703125 -0.34375 -1.078125 -0.9375q-0.359375 -0.609375 -0.359375 -1.328125q0 -0.65625 0.296875 -1.21875q0.3125 -0.5625 0.828125 -0.9375q0.390625 -0.28125 1.0625 -0.484375q0.671875 -0.203125 1.4375 -0.203125q1.171875 0 2.046875 0.34375q0.875 0.328125 1.28125 0.90625q0.421875 0.5625 0.578125 1.515625l-1.625 0.21875q-0.109375 -0.75 -0.65625 -1.171875q-0.53125 -0.4375 -1.5 -0.4375q-1.15625 0 -1.640625 0.390625q-0.484375 0.375 -0.484375 0.875q0 0.328125 0.203125 0.59375q0.203125 0.265625 0.640625 0.4375q0.25 0.09375 1.46875 0.4375q1.765625 0.46875 2.46875 0.765625q0.703125 0.296875 1.09375 0.875q0.40625 0.578125 0.40625 1.4375q0 0.828125 -0.484375 1.578125q-0.484375 0.734375 -1.40625 1.140625q-0.921875 0.390625 -2.078125 0.390625q-1.921875 0 -2.9375 -0.796875q-1.0 -0.796875 -1.28125 -2.359375zm13.65625 1.4375l0.234375 1.484375q-0.703125 0.140625 -1.265625 0.140625q-0.90625 0 -1.40625 -0.28125q-0.5 -0.296875 -0.703125 -0.75q-0.203125 -0.46875 -0.203125 -1.984375l0 -5.65625l-1.234375 0l0 -1.3125l1.234375 0l0 -2.4375l1.65625 -1.0l0 3.4375l1.6875 0l0 1.3125l-1.6875 0l0 5.75q0 0.71875 0.078125 0.921875q0.09375 0.203125 0.296875 0.328125q0.203125 0.125 0.578125 0.125q0.265625 0 0.734375 -0.078125zm1.1364441 -2.875l1.6875 -0.140625q0.125 1.015625 0.5625 1.671875q0.4375 0.65625 1.359375 1.0625q0.9375 0.40625 2.09375 0.40625q1.03125 0 1.8125 -0.3125q0.796875 -0.3125 1.1875 -0.84375q0.390625 -0.53125 0.390625 -1.15625q0 -0.640625 -0.375 -1.109375q-0.375 -0.484375 -1.234375 -0.8125q-0.546875 -0.21875 -2.421875 -0.65625q-1.875 -0.453125 -2.625 -0.859375q-0.96875 -0.515625 -1.453125 -1.265625q-0.46875 -0.75 -0.46875 -1.6875q0 -1.03125 0.578125 -1.921875q0.59375 -0.90625 1.703125 -1.359375q1.125 -0.46875 2.5 -0.46875q1.515625 0 2.671875 0.484375q1.15625 0.484375 1.765625 1.4375q0.625 0.9375 0.671875 2.140625l-1.71875 0.125q-0.140625 -1.28125 -0.953125 -1.9375q-0.796875 -0.671875 -2.359375 -0.671875q-1.625 0 -2.375 0.609375q-0.75 0.59375 -0.75 1.4375q0 0.734375 0.53125 1.203125q0.515625 0.46875 2.703125 0.96875q2.203125 0.5 3.015625 0.875q1.1875 0.546875 1.75 1.390625q0.578125 0.828125 0.578125 1.921875q0 1.09375 -0.625 2.0625q-0.625 0.953125 -1.796875 1.484375q-1.15625 0.53125 -2.609375 0.53125q-1.84375 0 -3.09375 -0.53125q-1.25 -0.546875 -1.96875 -1.625q-0.703125 -1.078125 -0.734375 -2.453125zm12.506073 -2.25q0 -3.390625 1.8125 -5.296875q1.828125 -1.921875 4.703125 -1.921875q1.875 0 3.390625 0.90625q1.515625 0.890625 2.296875 2.5q0.796875 1.609375 0.796875 3.65625q0 2.0625 -0.84375 3.703125q-0.828125 1.625 -2.359375 2.46875q-1.53125 0.84375 -3.296875 0.84375q-1.921875 0 -3.4375 -0.921875q-1.5 -0.9375 -2.28125 -2.53125q-0.78125 -1.609375 -0.78125 -3.40625zm1.859375 0.03125q0 2.453125 1.3125 3.875q1.328125 1.40625 3.3125 1.40625q2.03125 0 3.34375 -1.421875q1.3125 -1.4375 1.3125 -4.0625q0 -1.65625 -0.5625 -2.890625q-0.546875 -1.234375 -1.640625 -1.921875q-1.078125 -0.6875 -2.421875 -0.6875q-1.90625 0 -3.28125 1.3125q-1.375 1.3125 -1.375 4.390625zm12.589539 2.21875l1.6875 -0.140625q0.125 1.015625 0.5625 1.671875q0.4375 0.65625 1.359375 1.0625q0.9375 0.40625 2.09375 0.40625q1.03125 0 1.8125 -0.3125q0.796875 -0.3125 1.1875 -0.84375q0.390625 -0.53125 0.390625 -1.15625q0 -0.640625 -0.375 -1.109375q-0.375 -0.484375 -1.234375 -0.8125q-0.546875 -0.21875 -2.421875 -0.65625q-1.875 -0.453125 -2.625 -0.859375q-0.96875 -0.515625 -1.453125 -1.265625q-0.46875 -0.75 -0.46875 -1.6875q0 -1.03125 0.578125 -1.921875q0.59375 -0.90625 1.703125 -1.359375q1.125 -0.46875 2.5 -0.46875q1.515625 0 2.671875 0.484375q1.15625 0.484375 1.765625 1.4375q0.625 0.9375 0.671875 2.140625l-1.71875 0.125q-0.140625 -1.28125 -0.953125 -1.9375q-0.796875 -0.671875 -2.359375 -0.671875q-1.625 0 -2.375 0.609375q-0.75 0.59375 -0.75 1.4375q0 0.734375 0.53125 1.203125q0.515625 0.46875 2.703125 0.96875q2.203125 0.5 3.015625 0.875q1.1875 0.546875 1.75 1.390625q0.578125 0.828125 0.578125 1.921875q0 1.09375 -0.625 2.0625q-0.625 0.953125 -1.796875 1.484375q-1.15625 0.53125 -2.609375 0.53125q-1.84375 0 -3.09375 -0.53125q-1.25 -0.546875 -1.96875 -1.625q-0.703125 -1.078125 -0.734375 -2.453125z" fill-rule="nonzero"></path><path fill="#000000" d="m413.32263 519.90424l0 -13.59375l4.6875 0q1.578125 0 2.421875 0.1875q1.15625 0.265625 1.984375 0.96875q1.078125 0.921875 1.609375 2.34375q0.53125 1.40625 0.53125 3.21875q0 1.546875 -0.359375 2.75q-0.359375 1.1875 -0.921875 1.984375q-0.5625 0.78125 -1.234375 1.234375q-0.671875 0.4375 -1.625 0.671875q-0.953125 0.234375 -2.1875 0.234375l-4.90625 0zm1.796875 -1.609375l2.90625 0q1.34375 0 2.109375 -0.25q0.765625 -0.25 1.21875 -0.703125q0.640625 -0.640625 1.0 -1.71875q0.359375 -1.078125 0.359375 -2.625q0 -2.125 -0.703125 -3.265625q-0.703125 -1.15625 -1.703125 -1.546875q-0.71875 -0.28125 -2.328125 -0.28125l-2.859375 0l0 10.390625zm11.597961 1.609375l0 -13.59375l5.109375 0q1.546875 0 2.484375 0.40625q0.953125 0.40625 1.484375 1.265625q0.53125 0.859375 0.53125 1.796875q0 0.875 -0.46875 1.65625q-0.46875 0.765625 -1.4375 1.234375q1.234375 0.359375 1.890625 1.234375q0.671875 0.875 0.671875 2.0625q0 0.953125 -0.40625 1.78125q-0.390625 0.8125 -0.984375 1.265625q-0.59375 0.4375 -1.5 0.671875q-0.890625 0.21875 -2.1875 0.21875l-5.1875 0zm1.796875 -7.890625l2.9375 0q1.203125 0 1.71875 -0.15625q0.6875 -0.203125 1.03125 -0.671875q0.359375 -0.46875 0.359375 -1.1875q0 -0.671875 -0.328125 -1.1875q-0.328125 -0.515625 -0.9375 -0.703125q-0.59375 -0.203125 -2.0625 -0.203125l-2.71875 0l0 4.109375zm0 6.28125l3.390625 0q0.875 0 1.21875 -0.0625q0.625 -0.109375 1.046875 -0.359375q0.421875 -0.265625 0.6875 -0.765625q0.265625 -0.5 0.265625 -1.140625q0 -0.765625 -0.390625 -1.328125q-0.390625 -0.5625 -1.078125 -0.78125q-0.6875 -0.234375 -1.984375 -0.234375l-3.15625 0l0 4.671875zm16.334198 1.609375l-1.671875 0l0 -10.640625q-0.59375 0.578125 -1.578125 1.15625q-0.984375 0.5625 -1.765625 0.859375l0 -1.625q1.40625 -0.65625 2.453125 -1.59375q1.046875 -0.9375 1.484375 -1.8125l1.078125 0l0 13.65625z" fill-rule="nonzero"></path><path fill="#000000" fill-opacity="0.0" d="m311.00787 298.74805l0 0c0 5.383667 17.457367 9.748016 38.992126 9.748016c21.53476 0 38.992126 -4.3643494 38.992126 -9.748016l0 79.49603c0 5.3836975 -17.457367 9.748047 -38.992126 9.748047c-21.53476 0 -38.992126 -4.3643494 -38.992126 -9.748047z" fill-rule="nonzero"></path><path fill="#000000" fill-opacity="0.0" d="m311.00787 298.74805l0 0c0 -5.3836975 17.457367 -9.748047 38.992126 -9.748047c21.53476 0 38.992126 4.3643494 38.992126 9.748047l0 0c0 5.383667 -17.457367 9.748016 -38.992126 9.748016c-21.53476 0 -38.992126 -4.3643494 -38.992126 -9.748016z" fill-rule="nonzero"></path><path fill="#000000" fill-opacity="0.0" d="m388.99213 298.74805l0 0c0 5.383667 -17.457367 9.748016 -38.992126 9.748016c-21.53476 0 -38.992126 -4.3643494 -38.992126 -9.748016l0 0c0 -5.3836975 17.457367 -9.748047 38.992126 -9.748047c21.53476 0 38.992126 4.3643494 38.992126 9.748047l0 79.49603c0 5.3836975 -17.457367 9.748047 -38.992126 9.748047c-21.53476 0 -38.992126 -4.3643494 -38.992126 -9.748047l0 -79.49603" fill-rule="nonzero"></path><path fill="#ffffff" fill-opacity="0.4" d="m311.00787 298.74805l0 0c0 -5.3836975 17.457367 -9.748047 38.992126 -9.748047c21.53476 0 38.992126 4.3643494 38.992126 9.748047l0 0c0 5.383667 -17.457367 9.748016 -38.992126 9.748016c-21.53476 0 -38.992126 -4.3643494 -38.992126 -9.748016z" fill-rule="nonzero"></path><path stroke="#000000" stroke-width="2.0" stroke-linejoin="round" stroke-linecap="butt" d="m388.99213 298.74805l0 0c0 5.383667 -17.457367 9.748016 -38.992126 9.748016c-21.53476 0 -38.992126 -4.3643494 -38.992126 -9.748016l0 0c0 -5.3836975 17.457367 -9.748047 38.992126 -9.748047c21.53476 0 38.992126 4.3643494 38.992126 9.748047l0 79.49603c0 5.3836975 -17.457367 9.748047 -38.992126 9.748047c-21.53476 0 -38.992126 -4.3643494 -38.992126 -9.748047l0 -79.49603" fill-rule="nonzero"></path><path fill="#000000" d="m340.97632 330.45007l0 -10.734375l3.703125 0q1.25 0 1.90625 0.15625q0.921875 0.203125 1.578125 0.765625q0.84375 0.71875 1.265625 1.84375q0.421875 1.109375 0.421875 2.546875q0 1.21875 -0.28125 2.171875q-0.28125 0.9375 -0.734375 1.5625q-0.453125 0.609375 -0.984375 0.96875q-0.53125 0.359375 -1.28125 0.546875q-0.75 0.171875 -1.71875 0.171875l-3.875 0zm1.421875 -1.265625l2.296875 0q1.0625 0 1.65625 -0.1875q0.609375 -0.203125 0.96875 -0.5625q0.5 -0.515625 0.78125 -1.359375q0.28125 -0.859375 0.28125 -2.078125q0 -1.6875 -0.546875 -2.578125q-0.546875 -0.90625 -1.34375 -1.21875q-0.578125 -0.21875 -1.84375 -0.21875l-2.25 0l0 8.203125zm9.099884 1.265625l0 -10.734375l4.03125 0q1.234375 0 1.96875 0.328125q0.75 0.328125 1.171875 1.0q0.421875 0.671875 0.421875 1.421875q0 0.6875 -0.375 1.296875q-0.375 0.59375 -1.125 0.96875q0.96875 0.296875 1.484375 0.984375q0.53125 0.6875 0.53125 1.625q0 0.75 -0.328125 1.40625q-0.3125 0.640625 -0.78125 1.0q-0.46875 0.34375 -1.171875 0.53125q-0.703125 0.171875 -1.734375 0.171875l-4.09375 0zm1.421875 -6.21875l2.328125 0q0.9375 0 1.359375 -0.125q0.53125 -0.171875 0.796875 -0.546875q0.28125 -0.375 0.28125 -0.9375q0 -0.53125 -0.25 -0.9375q-0.25 -0.40625 -0.734375 -0.546875q-0.46875 -0.15625 -1.625 -0.15625l-2.15625 0l0 3.25zm0 4.953125l2.671875 0q0.6875 0 0.96875 -0.046875q0.5 -0.09375 0.828125 -0.296875q0.328125 -0.203125 0.53125 -0.59375q0.21875 -0.390625 0.21875 -0.90625q0 -0.609375 -0.3125 -1.046875q-0.296875 -0.4375 -0.84375 -0.609375q-0.546875 -0.1875 -1.578125 -0.1875l-2.484375 0l0 3.6875z" fill-rule="nonzero"></path><path fill="#000000" d="m324.80957 346.12195l1.296875 -0.203125q0.109375 0.78125 0.609375 1.203125q0.5 0.421875 1.40625 0.421875q0.90625 0 1.34375 -0.359375q0.4375 -0.375 0.4375 -0.875q0 -0.453125 -0.390625 -0.703125q-0.265625 -0.1875 -1.34375 -0.453125q-1.453125 -0.359375 -2.015625 -0.625q-0.546875 -0.28125 -0.84375 -0.75q-0.28125 -0.46875 -0.28125 -1.046875q0 -0.515625 0.234375 -0.953125q0.234375 -0.453125 0.640625 -0.734375q0.3125 -0.234375 0.84375 -0.390625q0.53125 -0.15625 1.140625 -0.15625q0.90625 0 1.59375 0.265625q0.703125 0.265625 1.03125 0.71875q0.328125 0.4375 0.453125 1.203125l-1.28125 0.171875q-0.09375 -0.609375 -0.515625 -0.9375q-0.421875 -0.34375 -1.1875 -0.34375q-0.90625 0 -1.296875 0.3125q-0.390625 0.296875 -0.390625 0.703125q0 0.25 0.15625 0.453125q0.171875 0.21875 0.515625 0.359375q0.1875 0.0625 1.15625 0.328125q1.40625 0.375 1.953125 0.609375q0.5625 0.234375 0.875 0.703125q0.3125 0.453125 0.3125 1.125q0 0.65625 -0.390625 1.234375q-0.375 0.578125 -1.109375 0.90625q-0.71875 0.3125 -1.640625 0.3125q-1.515625 0 -2.3125 -0.625q-0.78125 -0.625 -1.0 -1.875zm12.921875 -0.515625l1.296875 0.15625q-0.203125 1.34375 -1.09375 2.109375q-0.875 0.75 -2.140625 0.75q-1.59375 0 -2.5625 -1.03125q-0.96875 -1.046875 -0.96875 -3.0q0 -1.265625 0.40625 -2.203125q0.421875 -0.953125 1.265625 -1.421875q0.859375 -0.46875 1.859375 -0.46875q1.265625 0 2.078125 0.640625q0.8125 0.640625 1.03125 1.8125l-1.28125 0.203125q-0.1875 -0.78125 -0.65625 -1.171875q-0.453125 -0.40625 -1.109375 -0.40625q-1.0 0 -1.625 0.71875q-0.625 0.71875 -0.625 2.265625q0 1.5625 0.59375 2.28125q0.609375 0.703125 1.578125 0.703125q0.78125 0 1.296875 -0.46875q0.515625 -0.484375 0.65625 -1.46875zm2.25 2.84375l0 -10.734375l1.328125 0l0 3.84375q0.921875 -1.0625 2.328125 -1.0625q0.859375 0 1.5 0.34375q0.640625 0.34375 0.90625 0.9375q0.28125 0.59375 0.28125 1.75l0 4.921875l-1.328125 0l0 -4.921875q0 -1.0 -0.421875 -1.4375q-0.421875 -0.453125 -1.21875 -0.453125q-0.578125 0 -1.09375 0.296875q-0.515625 0.296875 -0.734375 0.828125q-0.21875 0.515625 -0.21875 1.4375l0 4.25l-1.328125 0zm13.479248 -2.5l1.359375 0.15625q-0.3125 1.203125 -1.1875 1.859375q-0.875 0.65625 -2.234375 0.65625q-1.703125 0 -2.703125 -1.046875q-1.0 -1.046875 -1.0 -2.953125q0 -1.953125 1.015625 -3.03125q1.015625 -1.09375 2.625 -1.09375q1.5625 0 2.546875 1.0625q0.984375 1.0625 0.984375 2.984375q0 0.125 0 0.359375l-5.8125 0q0.078125 1.28125 0.71875 1.96875q0.65625 0.671875 1.640625 0.671875q0.71875 0 1.234375 -0.375q0.515625 -0.390625 0.8125 -1.21875zm-4.328125 -2.140625l4.34375 0q-0.09375 -0.984375 -0.5 -1.46875q-0.625 -0.765625 -1.625 -0.765625q-0.921875 0 -1.546875 0.609375q-0.609375 0.609375 -0.671875 1.625zm7.1510925 4.640625l0 -7.78125l1.1875 0l0 1.09375q0.359375 -0.578125 0.96875 -0.921875q0.609375 -0.34375 1.390625 -0.34375q0.859375 0 1.40625 0.359375q0.5625 0.359375 0.78125 1.0q0.921875 -1.359375 2.40625 -1.359375q1.15625 0 1.78125 0.640625q0.625 0.640625 0.625 1.96875l0 5.34375l-1.3125 0l0 -4.90625q0 -0.78125 -0.125 -1.125q-0.125 -0.359375 -0.46875 -0.5625q-0.34375 -0.21875 -0.796875 -0.21875q-0.8125 0 -1.359375 0.546875q-0.546875 0.546875 -0.546875 1.75l0 4.515625l-1.3125 0l0 -5.046875q0 -0.890625 -0.328125 -1.328125q-0.3125 -0.4375 -1.046875 -0.4375q-0.5625 0 -1.03125 0.296875q-0.46875 0.296875 -0.6875 0.859375q-0.203125 0.5625 -0.203125 1.625l0 4.03125l-1.328125 0zm17.286896 -0.953125q-0.734375 0.609375 -1.40625 0.875q-0.671875 0.25 -1.453125 0.25q-1.28125 0 -1.96875 -0.625q-0.6875 -0.625 -0.6875 -1.59375q0 -0.578125 0.25 -1.046875q0.265625 -0.46875 0.6875 -0.75q0.421875 -0.296875 0.953125 -0.4375q0.375 -0.109375 1.171875 -0.203125q1.59375 -0.1875 2.34375 -0.453125q0.015625 -0.265625 0.015625 -0.34375q0 -0.8125 -0.375 -1.140625q-0.515625 -0.4375 -1.5 -0.4375q-0.9375 0 -1.390625 0.328125q-0.4375 0.3125 -0.640625 1.140625l-1.296875 -0.171875q0.171875 -0.828125 0.578125 -1.328125q0.40625 -0.515625 1.171875 -0.78125q0.765625 -0.28125 1.765625 -0.28125q1.0 0 1.609375 0.234375q0.625 0.234375 0.921875 0.59375q0.296875 0.34375 0.40625 0.890625q0.0625 0.34375 0.0625 1.21875l0 1.75q0 1.84375 0.078125 2.328125q0.09375 0.484375 0.34375 0.9375l-1.375 0q-0.203125 -0.40625 -0.265625 -0.953125zm-0.109375 -2.953125q-0.71875 0.296875 -2.15625 0.5q-0.8125 0.125 -1.15625 0.265625q-0.328125 0.140625 -0.515625 0.421875q-0.171875 0.28125 -0.171875 0.625q0 0.53125 0.390625 0.890625q0.40625 0.34375 1.171875 0.34375q0.765625 0 1.359375 -0.328125q0.59375 -0.34375 0.875 -0.921875q0.203125 -0.4375 0.203125 -1.3125l0 -0.484375z" fill-rule="nonzero"></path><path fill="#000000" d="m341.10977 366.45007l0 -6.75l-1.15625 0l0 -1.03125l1.15625 0l0 -0.828125q0 -0.78125 0.140625 -1.15625q0.203125 -0.515625 0.671875 -0.828125q0.484375 -0.328125 1.34375 -0.328125q0.5625 0 1.234375 0.140625l-0.203125 1.140625q-0.40625 -0.078125 -0.765625 -0.078125q-0.609375 0 -0.859375 0.265625q-0.25 0.25 -0.25 0.953125l0 0.71875l1.515625 0l0 1.03125l-1.515625 0l0 6.75l-1.3125 0zm3.275116 -3.890625q0 -2.15625 1.203125 -3.203125q1.0 -0.859375 2.4375 -0.859375q1.609375 0 2.625 1.046875q1.015625 1.046875 1.015625 2.90625q0 1.5 -0.453125 2.359375q-0.4375 0.859375 -1.3125 1.34375q-0.859375 0.46875 -1.875 0.46875q-1.625 0 -2.640625 -1.046875q-1.0 -1.046875 -1.0 -3.015625zm1.359375 0q0 1.5 0.640625 2.25q0.65625 0.734375 1.640625 0.734375q0.984375 0 1.640625 -0.75q0.65625 -0.75 0.65625 -2.28125q0 -1.4375 -0.65625 -2.171875q-0.65625 -0.75 -1.640625 -0.75q-0.984375 0 -1.640625 0.734375q-0.640625 0.734375 -0.640625 2.234375zm6.7917175 0q0 -2.15625 1.203125 -3.203125q1.0 -0.859375 2.4375 -0.859375q1.609375 0 2.625 1.046875q1.015625 1.046875 1.015625 2.90625q0 1.5 -0.453125 2.359375q-0.4375 0.859375 -1.3125 1.34375q-0.859375 0.46875 -1.875 0.46875q-1.625 0 -2.640625 -1.046875q-1.0 -1.046875 -1.0 -3.015625zm1.359375 0q0 1.5 0.640625 2.25q0.65625 0.734375 1.640625 0.734375q0.984375 0 1.640625 -0.75q0.65625 -0.75 0.65625 -2.28125q0 -1.4375 -0.65625 -2.171875q-0.65625 -0.75 -1.640625 -0.75q-0.984375 0 -1.640625 0.734375q-0.640625 0.734375 -0.640625 2.234375z" fill-rule="nonzero"></path><path fill="#000000" fill-opacity="0.0" d="m473.00787 298.74805l0 0c0 5.383667 17.457367 9.748016 38.992126 9.748016c21.534729 0 38.992126 -4.3643494 38.992126 -9.748016l0 79.49603c0 5.3836975 -17.457397 9.748047 -38.992126 9.748047c-21.53476 0 -38.992126 -4.3643494 -38.992126 -9.748047z" fill-rule="nonzero"></path><path fill="#000000" fill-opacity="0.0" d="m473.00787 298.74805l0 0c0 -5.3836975 17.457367 -9.748047 38.992126 -9.748047c21.534729 0 38.992126 4.3643494 38.992126 9.748047l0 0c0 5.383667 -17.457397 9.748016 -38.992126 9.748016c-21.53476 0 -38.992126 -4.3643494 -38.992126 -9.748016z" fill-rule="nonzero"></path><path fill="#000000" fill-opacity="0.0" d="m550.9921 298.74805l0 0c0 5.383667 -17.457397 9.748016 -38.992126 9.748016c-21.53476 0 -38.992126 -4.3643494 -38.992126 -9.748016l0 0c0 -5.3836975 17.457367 -9.748047 38.992126 -9.748047c21.534729 0 38.992126 4.3643494 38.992126 9.748047l0 79.49603c0 5.3836975 -17.457397 9.748047 -38.992126 9.748047c-21.53476 0 -38.992126 -4.3643494 -38.992126 -9.748047l0 -79.49603" fill-rule="nonzero"></path><path fill="#ffffff" fill-opacity="0.4" d="m473.00787 298.74805l0 0c0 -5.3836975 17.457367 -9.748047 38.992126 -9.748047c21.534729 0 38.992126 4.3643494 38.992126 9.748047l0 0c0 5.383667 -17.457397 9.748016 -38.992126 9.748016c-21.53476 0 -38.992126 -4.3643494 -38.992126 -9.748016z" fill-rule="nonzero"></path><path stroke="#000000" stroke-width="2.0" stroke-linejoin="round" stroke-linecap="butt" d="m550.9921 298.74805l0 0c0 5.383667 -17.457397 9.748016 -38.992126 9.748016c-21.53476 0 -38.992126 -4.3643494 -38.992126 -9.748016l0 0c0 -5.3836975 17.457367 -9.748047 38.992126 -9.748047c21.534729 0 38.992126 4.3643494 38.992126 9.748047l0 79.49603c0 5.3836975 -17.457397 9.748047 -38.992126 9.748047c-21.53476 0 -38.992126 -4.3643494 -38.992126 -9.748047l0 -79.49603" fill-rule="nonzero"></path><path fill="#000000" d="m502.97632 330.45007l0 -10.734375l3.703125 0q1.25 0 1.90625 0.15625q0.921875 0.203125 1.578125 0.765625q0.84375 0.71875 1.265625 1.84375q0.421875 1.109375 0.421875 2.546875q0 1.21875 -0.28125 2.171875q-0.28125 0.9375 -0.734375 1.5625q-0.453125 0.609375 -0.984375 0.96875q-0.53125 0.359375 -1.28125 0.546875q-0.75 0.171875 -1.71875 0.171875l-3.875 0zm1.421875 -1.265625l2.296875 0q1.0625 0 1.65625 -0.1875q0.609375 -0.203125 0.96875 -0.5625q0.5 -0.515625 0.78125 -1.359375q0.28125 -0.859375 0.28125 -2.078125q0 -1.6875 -0.546875 -2.578125q-0.546875 -0.90625 -1.34375 -1.21875q-0.578125 -0.21875 -1.84375 -0.21875l-2.25 0l0 8.203125zm9.099915 1.265625l0 -10.734375l4.03125 0q1.234375 0 1.96875 0.328125q0.75 0.328125 1.171875 1.0q0.421875 0.671875 0.421875 1.421875q0 0.6875 -0.375 1.296875q-0.375 0.59375 -1.125 0.96875q0.96875 0.296875 1.484375 0.984375q0.53125 0.6875 0.53125 1.625q0 0.75 -0.328125 1.40625q-0.3125 0.640625 -0.78125 1.0q-0.46875 0.34375 -1.171875 0.53125q-0.703125 0.171875 -1.734375 0.171875l-4.09375 0zm1.421875 -6.21875l2.328125 0q0.9375 0 1.359375 -0.125q0.53125 -0.171875 0.796875 -0.546875q0.28125 -0.375 0.28125 -0.9375q0 -0.53125 -0.25 -0.9375q-0.25 -0.40625 -0.734375 -0.546875q-0.46875 -0.15625 -1.625 -0.15625l-2.15625 0l0 3.25zm0 4.953125l2.671875 0q0.6875 0 0.96875 -0.046875q0.5 -0.09375 0.828125 -0.296875q0.328125 -0.203125 0.53125 -0.59375q0.21875 -0.390625 0.21875 -0.90625q0 -0.609375 -0.3125 -1.046875q-0.296875 -0.4375 -0.84375 -0.609375q-0.546875 -0.1875 -1.578125 -0.1875l-2.484375 0l0 3.6875z" fill-rule="nonzero"></path><path fill="#000000" d="m486.80957 346.12195l1.296875 -0.203125q0.109375 0.78125 0.609375 1.203125q0.5 0.421875 1.40625 0.421875q0.90625 0 1.34375 -0.359375q0.4375 -0.375 0.4375 -0.875q0 -0.453125 -0.390625 -0.703125q-0.265625 -0.1875 -1.34375 -0.453125q-1.453125 -0.359375 -2.015625 -0.625q-0.546875 -0.28125 -0.84375 -0.75q-0.28125 -0.46875 -0.28125 -1.046875q0 -0.515625 0.234375 -0.953125q0.234375 -0.453125 0.640625 -0.734375q0.3125 -0.234375 0.84375 -0.390625q0.53125 -0.15625 1.140625 -0.15625q0.90625 0 1.59375 0.265625q0.703125 0.265625 1.03125 0.71875q0.328125 0.4375 0.453125 1.203125l-1.28125 0.171875q-0.09375 -0.609375 -0.515625 -0.9375q-0.421875 -0.34375 -1.1875 -0.34375q-0.90625 0 -1.296875 0.3125q-0.390625 0.296875 -0.390625 0.703125q0 0.25 0.15625 0.453125q0.171875 0.21875 0.515625 0.359375q0.1875 0.0625 1.15625 0.328125q1.40625 0.375 1.953125 0.609375q0.5625 0.234375 0.875 0.703125q0.3125 0.453125 0.3125 1.125q0 0.65625 -0.390625 1.234375q-0.375 0.578125 -1.109375 0.90625q-0.71875 0.3125 -1.640625 0.3125q-1.515625 0 -2.3125 -0.625q-0.78125 -0.625 -1.0 -1.875zm12.921875 -0.515625l1.296875 0.15625q-0.203125 1.34375 -1.09375 2.109375q-0.875 0.75 -2.140625 0.75q-1.59375 0 -2.5625 -1.03125q-0.96875 -1.046875 -0.96875 -3.0q0 -1.265625 0.40625 -2.203125q0.421875 -0.953125 1.265625 -1.421875q0.859375 -0.46875 1.859375 -0.46875q1.265625 0 2.078125 0.640625q0.8125 0.640625 1.03125 1.8125l-1.28125 0.203125q-0.1875 -0.78125 -0.65625 -1.171875q-0.453125 -0.40625 -1.109375 -0.40625q-1.0 0 -1.625 0.71875q-0.625 0.71875 -0.625 2.265625q0 1.5625 0.59375 2.28125q0.609375 0.703125 1.578125 0.703125q0.78125 0 1.296875 -0.46875q0.515625 -0.484375 0.65625 -1.46875zm2.25 2.84375l0 -10.734375l1.328125 0l0 3.84375q0.921875 -1.0625 2.328125 -1.0625q0.859375 0 1.5 0.34375q0.640625 0.34375 0.90625 0.9375q0.28125 0.59375 0.28125 1.75l0 4.921875l-1.328125 0l0 -4.921875q0 -1.0 -0.421875 -1.4375q-0.421875 -0.453125 -1.21875 -0.453125q-0.578125 0 -1.09375 0.296875q-0.515625 0.296875 -0.734375 0.828125q-0.21875 0.515625 -0.21875 1.4375l0 4.25l-1.328125 0zm13.479248 -2.5l1.359375 0.15625q-0.3125 1.203125 -1.1875 1.859375q-0.875 0.65625 -2.234375 0.65625q-1.703125 0 -2.703125 -1.046875q-1.0 -1.046875 -1.0 -2.953125q0 -1.953125 1.015625 -3.03125q1.015625 -1.09375 2.625 -1.09375q1.5625 0 2.546875 1.0625q0.984375 1.0625 0.984375 2.984375q0 0.125 0 0.359375l-5.8125 0q0.078125 1.28125 0.71875 1.96875q0.65625 0.671875 1.640625 0.671875q0.71875 0 1.234375 -0.375q0.515625 -0.390625 0.8125 -1.21875zm-4.328125 -2.140625l4.34375 0q-0.09375 -0.984375 -0.5 -1.46875q-0.625 -0.765625 -1.625 -0.765625q-0.921875 0 -1.546875 0.609375q-0.609375 0.609375 -0.671875 1.625zm7.151123 4.640625l0 -7.78125l1.1875 0l0 1.09375q0.359375 -0.578125 0.96875 -0.921875q0.609375 -0.34375 1.390625 -0.34375q0.859375 0 1.40625 0.359375q0.5625 0.359375 0.78125 1.0q0.921875 -1.359375 2.40625 -1.359375q1.15625 0 1.78125 0.640625q0.625 0.640625 0.625 1.96875l0 5.34375l-1.3125 0l0 -4.90625q0 -0.78125 -0.125 -1.125q-0.125 -0.359375 -0.46875 -0.5625q-0.34375 -0.21875 -0.796875 -0.21875q-0.8125 0 -1.359375 0.546875q-0.546875 0.546875 -0.546875 1.75l0 4.515625l-1.3125 0l0 -5.046875q0 -0.890625 -0.328125 -1.328125q-0.3125 -0.4375 -1.046875 -0.4375q-0.5625 0 -1.03125 0.296875q-0.46875 0.296875 -0.6875 0.859375q-0.203125 0.5625 -0.203125 1.625l0 4.03125l-1.328125 0zm17.286865 -0.953125q-0.734375 0.609375 -1.40625 0.875q-0.671875 0.25 -1.453125 0.25q-1.28125 0 -1.96875 -0.625q-0.6875 -0.625 -0.6875 -1.59375q0 -0.578125 0.25 -1.046875q0.265625 -0.46875 0.6875 -0.75q0.421875 -0.296875 0.953125 -0.4375q0.375 -0.109375 1.171875 -0.203125q1.59375 -0.1875 2.34375 -0.453125q0.015625 -0.265625 0.015625 -0.34375q0 -0.8125 -0.375 -1.140625q-0.515625 -0.4375 -1.5 -0.4375q-0.9375 0 -1.390625 0.328125q-0.4375 0.3125 -0.640625 1.140625l-1.296875 -0.171875q0.171875 -0.828125 0.578125 -1.328125q0.40625 -0.515625 1.171875 -0.78125q0.765625 -0.28125 1.765625 -0.28125q1.0 0 1.609375 0.234375q0.625 0.234375 0.921875 0.59375q0.296875 0.34375 0.40625 0.890625q0.0625 0.34375 0.0625 1.21875l0 1.75q0 1.84375 0.078125 2.328125q0.09375 0.484375 0.34375 0.9375l-1.375 0q-0.203125 -0.40625 -0.265625 -0.953125zm-0.109375 -2.953125q-0.71875 0.296875 -2.15625 0.5q-0.8125 0.125 -1.15625 0.265625q-0.328125 0.140625 -0.515625 0.421875q-0.171875 0.28125 -0.171875 0.625q0 0.53125 0.390625 0.890625q0.40625 0.34375 1.171875 0.34375q0.765625 0 1.359375 -0.328125q0.59375 -0.34375 0.875 -0.921875q0.203125 -0.4375 0.203125 -1.3125l0 -0.484375z" fill-rule="nonzero"></path><path fill="#000000" d="m503.6117 366.45007l-1.21875 0l0 -10.734375l1.3125 0l0 3.828125q0.84375 -1.046875 2.140625 -1.046875q0.71875 0 1.359375 0.296875q0.640625 0.28125 1.046875 0.8125q0.421875 0.515625 0.65625 1.265625q0.234375 0.734375 0.234375 1.578125q0 2.0 -1.0 3.09375q-0.984375 1.078125 -2.375 1.078125q-1.375 0 -2.15625 -1.140625l0 0.96875zm-0.015625 -3.953125q0 1.40625 0.390625 2.03125q0.609375 1.015625 1.671875 1.015625q0.875 0 1.5 -0.75q0.625 -0.75 0.625 -2.234375q0 -1.53125 -0.609375 -2.25q-0.59375 -0.734375 -1.453125 -0.734375q-0.859375 0 -1.5 0.75q-0.625 0.75 -0.625 2.171875zm12.026123 3.0q-0.734375 0.609375 -1.40625 0.875q-0.671875 0.25 -1.453125 0.25q-1.28125 0 -1.96875 -0.625q-0.6875 -0.625 -0.6875 -1.59375q0 -0.578125 0.25 -1.046875q0.265625 -0.46875 0.6875 -0.75q0.421875 -0.296875 0.953125 -0.4375q0.375 -0.109375 1.171875 -0.203125q1.59375 -0.1875 2.34375 -0.453125q0.015625 -0.265625 0.015625 -0.34375q0 -0.8125 -0.375 -1.140625q-0.515625 -0.4375 -1.5 -0.4375q-0.9375 0 -1.390625 0.328125q-0.4375 0.3125 -0.640625 1.140625l-1.296875 -0.171875q0.171875 -0.828125 0.578125 -1.328125q0.40625 -0.515625 1.171875 -0.78125q0.765625 -0.28125 1.765625 -0.28125q1.0 0 1.609375 0.234375q0.625 0.234375 0.921875 0.59375q0.296875 0.34375 0.40625 0.890625q0.0625 0.34375 0.0625 1.21875l0 1.75q0 1.84375 0.078125 2.328125q0.09375 0.484375 0.34375 0.9375l-1.375 0q-0.203125 -0.40625 -0.265625 -0.953125zm-0.109375 -2.953125q-0.71875 0.296875 -2.15625 0.5q-0.8125 0.125 -1.15625 0.265625q-0.328125 0.140625 -0.515625 0.421875q-0.171875 0.28125 -0.171875 0.625q0 0.53125 0.390625 0.890625q0.40625 0.34375 1.171875 0.34375q0.765625 0 1.359375 -0.328125q0.59375 -0.34375 0.875 -0.921875q0.203125 -0.4375 0.203125 -1.3125l0 -0.484375zm3.166748 3.90625l0 -7.78125l1.1875 0l0 1.1875q0.453125 -0.828125 0.84375 -1.09375q0.390625 -0.265625 0.84375 -0.265625q0.671875 0 1.359375 0.421875l-0.453125 1.21875q-0.484375 -0.28125 -0.96875 -0.28125q-0.4375 0 -0.78125 0.265625q-0.34375 0.25 -0.484375 0.71875q-0.21875 0.703125 -0.21875 1.53125l0 4.078125l-1.328125 0z" fill-rule="nonzero"></path><path fill="#000000" fill-opacity="0.0" d="m635.0079 298.74805l0 0c0 5.383667 17.457397 9.748016 38.992126 9.748016c21.534729 0 38.992126 -4.3643494 38.992126 -9.748016l0 79.49603c0 5.3836975 -17.457397 9.748047 -38.992126 9.748047c-21.534729 0 -38.992126 -4.3643494 -38.992126 -9.748047z" fill-rule="nonzero"></path><path fill="#000000" fill-opacity="0.0" d="m635.0079 298.74805l0 0c0 -5.3836975 17.457397 -9.748047 38.992126 -9.748047c21.534729 0 38.992126 4.3643494 38.992126 9.748047l0 0c0 5.383667 -17.457397 9.748016 -38.992126 9.748016c-21.534729 0 -38.992126 -4.3643494 -38.992126 -9.748016z" fill-rule="nonzero"></path><path fill="#000000" fill-opacity="0.0" d="m712.9921 298.74805l0 0c0 5.383667 -17.457397 9.748016 -38.992126 9.748016c-21.534729 0 -38.992126 -4.3643494 -38.992126 -9.748016l0 0c0 -5.3836975 17.457397 -9.748047 38.992126 -9.748047c21.534729 0 38.992126 4.3643494 38.992126 9.748047l0 79.49603c0 5.3836975 -17.457397 9.748047 -38.992126 9.748047c-21.534729 0 -38.992126 -4.3643494 -38.992126 -9.748047l0 -79.49603" fill-rule="nonzero"></path><path fill="#ffffff" fill-opacity="0.4" d="m635.0079 298.74805l0 0c0 -5.3836975 17.457397 -9.748047 38.992126 -9.748047c21.534729 0 38.992126 4.3643494 38.992126 9.748047l0 0c0 5.383667 -17.457397 9.748016 -38.992126 9.748016c-21.534729 0 -38.992126 -4.3643494 -38.992126 -9.748016z" fill-rule="nonzero"></path><path stroke="#000000" stroke-width="2.0" stroke-linejoin="round" stroke-linecap="butt" d="m712.9921 298.74805l0 0c0 5.383667 -17.457397 9.748016 -38.992126 9.748016c-21.534729 0 -38.992126 -4.3643494 -38.992126 -9.748016l0 0c0 -5.3836975 17.457397 -9.748047 38.992126 -9.748047c21.534729 0 38.992126 4.3643494 38.992126 9.748047l0 79.49603c0 5.3836975 -17.457397 9.748047 -38.992126 9.748047c-21.534729 0 -38.992126 -4.3643494 -38.992126 -9.748047l0 -79.49603" fill-rule="nonzero"></path><path fill="#000000" d="m664.9763 330.45007l0 -10.734375l3.703125 0q1.25 0 1.90625 0.15625q0.921875 0.203125 1.578125 0.765625q0.84375 0.71875 1.265625 1.84375q0.421875 1.109375 0.421875 2.546875q0 1.21875 -0.28125 2.171875q-0.28125 0.9375 -0.734375 1.5625q-0.453125 0.609375 -0.984375 0.96875q-0.53125 0.359375 -1.28125 0.546875q-0.75 0.171875 -1.71875 0.171875l-3.875 0zm1.421875 -1.265625l2.296875 0q1.0625 0 1.65625 -0.1875q0.609375 -0.203125 0.96875 -0.5625q0.5 -0.515625 0.78125 -1.359375q0.28125 -0.859375 0.28125 -2.078125q0 -1.6875 -0.546875 -2.578125q-0.546875 -0.90625 -1.34375 -1.21875q-0.578125 -0.21875 -1.84375 -0.21875l-2.25 0l0 8.203125zm9.099915 1.265625l0 -10.734375l4.03125 0q1.234375 0 1.96875 0.328125q0.75 0.328125 1.171875 1.0q0.421875 0.671875 0.421875 1.421875q0 0.6875 -0.375 1.296875q-0.375 0.59375 -1.125 0.96875q0.96875 0.296875 1.484375 0.984375q0.53125 0.6875 0.53125 1.625q0 0.75 -0.328125 1.40625q-0.3125 0.640625 -0.78125 1.0q-0.46875 0.34375 -1.171875 0.53125q-0.703125 0.171875 -1.734375 0.171875l-4.09375 0zm1.421875 -6.21875l2.328125 0q0.9375 0 1.359375 -0.125q0.53125 -0.171875 0.796875 -0.546875q0.28125 -0.375 0.28125 -0.9375q0 -0.53125 -0.25 -0.9375q-0.25 -0.40625 -0.734375 -0.546875q-0.46875 -0.15625 -1.625 -0.15625l-2.15625 0l0 3.25zm0 4.953125l2.671875 0q0.6875 0 0.96875 -0.046875q0.5 -0.09375 0.828125 -0.296875q0.328125 -0.203125 0.53125 -0.59375q0.21875 -0.390625 0.21875 -0.90625q0 -0.609375 -0.3125 -1.046875q-0.296875 -0.4375 -0.84375 -0.609375q-0.546875 -0.1875 -1.578125 -0.1875l-2.484375 0l0 3.6875z" fill-rule="nonzero"></path><path fill="#000000" d="m648.8096 346.12195l1.296875 -0.203125q0.109375 0.78125 0.609375 1.203125q0.5 0.421875 1.40625 0.421875q0.90625 0 1.34375 -0.359375q0.4375 -0.375 0.4375 -0.875q0 -0.453125 -0.390625 -0.703125q-0.265625 -0.1875 -1.34375 -0.453125q-1.453125 -0.359375 -2.015625 -0.625q-0.546875 -0.28125 -0.84375 -0.75q-0.28125 -0.46875 -0.28125 -1.046875q0 -0.515625 0.234375 -0.953125q0.234375 -0.453125 0.640625 -0.734375q0.3125 -0.234375 0.84375 -0.390625q0.53125 -0.15625 1.140625 -0.15625q0.90625 0 1.59375 0.265625q0.703125 0.265625 1.03125 0.71875q0.328125 0.4375 0.453125 1.203125l-1.28125 0.171875q-0.09375 -0.609375 -0.515625 -0.9375q-0.421875 -0.34375 -1.1875 -0.34375q-0.90625 0 -1.296875 0.3125q-0.390625 0.296875 -0.390625 0.703125q0 0.25 0.15625 0.453125q0.171875 0.21875 0.515625 0.359375q0.1875 0.0625 1.15625 0.328125q1.40625 0.375 1.953125 0.609375q0.5625 0.234375 0.875 0.703125q0.3125 0.453125 0.3125 1.125q0 0.65625 -0.390625 1.234375q-0.375 0.578125 -1.109375 0.90625q-0.71875 0.3125 -1.640625 0.3125q-1.515625 0 -2.3125 -0.625q-0.78125 -0.625 -1.0 -1.875zm12.921875 -0.515625l1.296875 0.15625q-0.203125 1.34375 -1.09375 2.109375q-0.875 0.75 -2.140625 0.75q-1.59375 0 -2.5625 -1.03125q-0.96875 -1.046875 -0.96875 -3.0q0 -1.265625 0.40625 -2.203125q0.421875 -0.953125 1.265625 -1.421875q0.859375 -0.46875 1.859375 -0.46875q1.265625 0 2.078125 0.640625q0.8125 0.640625 1.03125 1.8125l-1.28125 0.203125q-0.1875 -0.78125 -0.65625 -1.171875q-0.453125 -0.40625 -1.109375 -0.40625q-1.0 0 -1.625 0.71875q-0.625 0.71875 -0.625 2.265625q0 1.5625 0.59375 2.28125q0.609375 0.703125 1.578125 0.703125q0.78125 0 1.296875 -0.46875q0.515625 -0.484375 0.65625 -1.46875zm2.25 2.84375l0 -10.734375l1.328125 0l0 3.84375q0.921875 -1.0625 2.328125 -1.0625q0.859375 0 1.5 0.34375q0.640625 0.34375 0.90625 0.9375q0.28125 0.59375 0.28125 1.75l0 4.921875l-1.328125 0l0 -4.921875q0 -1.0 -0.421875 -1.4375q-0.421875 -0.453125 -1.21875 -0.453125q-0.578125 0 -1.09375 0.296875q-0.515625 0.296875 -0.734375 0.828125q-0.21875 0.515625 -0.21875 1.4375l0 4.25l-1.328125 0zm13.479248 -2.5l1.359375 0.15625q-0.3125 1.203125 -1.1875 1.859375q-0.875 0.65625 -2.234375 0.65625q-1.703125 0 -2.703125 -1.046875q-1.0 -1.046875 -1.0 -2.953125q0 -1.953125 1.015625 -3.03125q1.015625 -1.09375 2.625 -1.09375q1.5625 0 2.546875 1.0625q0.984375 1.0625 0.984375 2.984375q0 0.125 0 0.359375l-5.8125 0q0.078125 1.28125 0.71875 1.96875q0.65625 0.671875 1.640625 0.671875q0.71875 0 1.234375 -0.375q0.515625 -0.390625 0.8125 -1.21875zm-4.328125 -2.140625l4.34375 0q-0.09375 -0.984375 -0.5 -1.46875q-0.625 -0.765625 -1.625 -0.765625q-0.921875 0 -1.546875 0.609375q-0.609375 0.609375 -0.671875 1.625zm7.151123 4.640625l0 -7.78125l1.1875 0l0 1.09375q0.359375 -0.578125 0.96875 -0.921875q0.609375 -0.34375 1.390625 -0.34375q0.859375 0 1.40625 0.359375q0.5625 0.359375 0.78125 1.0q0.921875 -1.359375 2.40625 -1.359375q1.15625 0 1.78125 0.640625q0.625 0.640625 0.625 1.96875l0 5.34375l-1.3125 0l0 -4.90625q0 -0.78125 -0.125 -1.125q-0.125 -0.359375 -0.46875 -0.5625q-0.34375 -0.21875 -0.796875 -0.21875q-0.8125 0 -1.359375 0.546875q-0.546875 0.546875 -0.546875 1.75l0 4.515625l-1.3125 0l0 -5.046875q0 -0.890625 -0.328125 -1.328125q-0.3125 -0.4375 -1.046875 -0.4375q-0.5625 0 -1.03125 0.296875q-0.46875 0.296875 -0.6875 0.859375q-0.203125 0.5625 -0.203125 1.625l0 4.03125l-1.328125 0zm17.286865 -0.953125q-0.734375 0.609375 -1.40625 0.875q-0.671875 0.25 -1.453125 0.25q-1.28125 0 -1.96875 -0.625q-0.6875 -0.625 -0.6875 -1.59375q0 -0.578125 0.25 -1.046875q0.265625 -0.46875 0.6875 -0.75q0.421875 -0.296875 0.953125 -0.4375q0.375 -0.109375 1.171875 -0.203125q1.59375 -0.1875 2.34375 -0.453125q0.015625 -0.265625 0.015625 -0.34375q0 -0.8125 -0.375 -1.140625q-0.515625 -0.4375 -1.5 -0.4375q-0.9375 0 -1.390625 0.328125q-0.4375 0.3125 -0.640625 1.140625l-1.296875 -0.171875q0.171875 -0.828125 0.578125 -1.328125q0.40625 -0.515625 1.171875 -0.78125q0.765625 -0.28125 1.765625 -0.28125q1.0 0 1.609375 0.234375q0.625 0.234375 0.921875 0.59375q0.296875 0.34375 0.40625 0.890625q0.0625 0.34375 0.0625 1.21875l0 1.75q0 1.84375 0.078125 2.328125q0.09375 0.484375 0.34375 0.9375l-1.375 0q-0.203125 -0.40625 -0.265625 -0.953125zm-0.109375 -2.953125q-0.71875 0.296875 -2.15625 0.5q-0.8125 0.125 -1.15625 0.265625q-0.328125 0.140625 -0.515625 0.421875q-0.171875 0.28125 -0.171875 0.625q0 0.53125 0.390625 0.890625q0.40625 0.34375 1.171875 0.34375q0.765625 0 1.359375 -0.328125q0.59375 -0.34375 0.875 -0.921875q0.203125 -0.4375 0.203125 -1.3125l0 -0.484375z" fill-rule="nonzero"></path><path fill="#000000" d="m670.9088 366.45007l0 -7.78125l1.1875 0l0 1.109375q0.859375 -1.28125 2.484375 -1.28125q0.703125 0 1.28125 0.25q0.59375 0.25 0.890625 0.671875q0.296875 0.40625 0.40625 0.96875q0.078125 0.359375 0.078125 1.28125l0 4.78125l-1.328125 0l0 -4.734375q0 -0.796875 -0.15625 -1.1875q-0.140625 -0.40625 -0.53125 -0.640625q-0.390625 -0.25 -0.921875 -0.25q-0.84375 0 -1.453125 0.53125q-0.609375 0.53125 -0.609375 2.03125l0 4.25l-1.328125 0z" fill-rule="nonzero"></path><path fill="#000000" fill-opacity="0.0" d="m512.0 126.00787l0 70.99213" fill-rule="nonzero"></path><path stroke="#000000" stroke-width="2.0" stroke-linejoin="round" stroke-linecap="butt" d="m512.0 126.00787l0 70.99213" fill-rule="nonzero"></path><path fill="#000000" fill-opacity="0.0" d="m448.0 105.50394l-98.01575 91.49606" fill-rule="nonzero"></path><path stroke="#000000" stroke-width="2.0" stroke-linejoin="round" stroke-linecap="butt" d="m448.0 105.50394l-98.01575 91.49606" fill-rule="nonzero"></path><path fill="#000000" fill-opacity="0.0" d="m576.0 105.50394l98.01575 91.49606" fill-rule="nonzero"></path><path stroke="#000000" stroke-width="2.0" stroke-linejoin="round" stroke-linecap="butt" d="m576.0 105.50394l98.01575 91.49606" fill-rule="nonzero"></path><path fill="#000000" fill-opacity="0.0" d="m674.0 238.00787l0 50.992126" fill-rule="nonzero"></path><path stroke="#000000" stroke-width="2.0" stroke-linejoin="round" stroke-linecap="butt" d="m674.0 238.00787l0 50.992126" fill-rule="nonzero"></path><path fill="#000000" fill-opacity="0.0" d="m511.99918 238.00787l0 50.992126" fill-rule="nonzero"></path><path stroke="#000000" stroke-width="2.0" stroke-linejoin="round" stroke-linecap="butt" d="m511.99918 238.00787l0 50.992126" fill-rule="nonzero"></path><path fill="#000000" fill-opacity="0.0" d="m350.0 238.00787l0 50.992126" fill-rule="nonzero"></path><path stroke="#000000" stroke-width="2.0" stroke-linejoin="round" stroke-linecap="butt" d="m350.0 238.00787l0 50.992126" fill-rule="nonzero"></path><path fill="#000000" fill-opacity="0.0" d="m350.0 387.99213l80.0 50.992126" fill-rule="nonzero"></path><path stroke="#000000" stroke-width="2.0" stroke-linejoin="round" stroke-linecap="butt" d="m350.0 387.99213l80.0 50.992126" fill-rule="nonzero"></path><path fill="#000000" fill-opacity="0.0" d="m512.0 387.99213l-82.01575 50.992126" fill-rule="nonzero"></path><path stroke="#000000" stroke-width="2.0" stroke-linejoin="round" stroke-linecap="butt" d="m512.0 387.99213l-82.01575 50.992126" fill-rule="nonzero"></path><path fill="#000000" fill-opacity="0.0" d="m674.0 387.99213l0 50.015747" fill-rule="nonzero"></path><path stroke="#000000" stroke-width="2.0" stroke-linejoin="round" stroke-linecap="butt" d="m674.0 387.99213l0 50.015747" fill-rule="nonzero"></path><path fill="#000000" fill-opacity="0.0" d="m617.0079 452.0l0 0c0 7.7319946 25.516235 14.0 56.992126 14.0c31.475891 0 56.992126 -6.2680054 56.992126 -14.0l0 84.0c0 7.7319946 -25.516235 14.0 -56.992126 14.0c-31.475891 0 -56.992126 -6.2680054 -56.992126 -14.0z" fill-rule="nonzero"></path><path fill="#000000" fill-opacity="0.0" d="m617.0079 452.0l0 0c0 -7.7319946 25.516235 -14.0 56.992126 -14.0c31.475891 0 56.992126 6.2680054 56.992126 14.0l0 0c0 7.7319946 -25.516235 14.0 -56.992126 14.0c-31.475891 0 -56.992126 -6.2680054 -56.992126 -14.0z" fill-rule="nonzero"></path><path fill="#000000" fill-opacity="0.0" d="m730.9921 452.0l0 0c0 7.7319946 -25.516235 14.0 -56.992126 14.0c-31.475891 0 -56.992126 -6.2680054 -56.992126 -14.0l0 0c0 -7.7319946 25.516235 -14.0 56.992126 -14.0c31.475891 0 56.992126 6.2680054 56.992126 14.0l0 84.0c0 7.7319946 -25.516235 14.0 -56.992126 14.0c-31.475891 0 -56.992126 -6.2680054 -56.992126 -14.0l0 -84.0" fill-rule="nonzero"></path><path fill="#ffffff" fill-opacity="0.4" d="m617.0079 452.0l0 0c0 -7.7319946 25.516235 -14.0 56.992126 -14.0c31.475891 0 56.992126 6.2680054 56.992126 14.0l0 0c0 7.7319946 -25.516235 14.0 -56.992126 14.0c-31.475891 0 -56.992126 -6.2680054 -56.992126 -14.0z" fill-rule="nonzero"></path><path stroke="#000000" stroke-width="2.0" stroke-linejoin="round" stroke-linecap="butt" d="m730.9921 452.0l0 0c0 7.7319946 -25.516235 14.0 -56.992126 14.0c-31.475891 0 -56.992126 -6.2680054 -56.992126 -14.0l0 0c0 -7.7319946 25.516235 -14.0 56.992126 -14.0c31.475891 0 56.992126 6.2680054 56.992126 14.0l0 84.0c0 7.7319946 -25.516235 14.0 -56.992126 14.0c-31.475891 0 -56.992126 -6.2680054 -56.992126 -14.0l0 -84.0" fill-rule="nonzero"></path><path fill="#000000" d="m646.2382 485.23248l0 -1.90625l1.671875 0l0 1.90625l-1.671875 0zm0 11.6875l0 -9.859375l1.671875 0l0 9.859375l-1.671875 0zm3.4573364 -2.9375l1.65625 -0.265625q0.140625 1.0 0.765625 1.53125q0.640625 0.515625 1.78125 0.515625q1.15625 0 1.703125 -0.46875q0.5625 -0.46875 0.5625 -1.09375q0 -0.5625 -0.484375 -0.890625q-0.34375 -0.21875 -1.703125 -0.5625q-1.84375 -0.46875 -2.5625 -0.796875q-0.703125 -0.34375 -1.078125 -0.9375q-0.359375 -0.609375 -0.359375 -1.328125q0 -0.65625 0.296875 -1.21875q0.3125 -0.5625 0.828125 -0.9375q0.390625 -0.28125 1.0625 -0.484375q0.671875 -0.203125 1.4375 -0.203125q1.171875 0 2.046875 0.34375q0.875 0.328125 1.28125 0.90625q0.421875 0.5625 0.578125 1.515625l-1.625 0.21875q-0.109375 -0.75 -0.65625 -1.171875q-0.53125 -0.4375 -1.5 -0.4375q-1.15625 0 -1.640625 0.390625q-0.484375 0.375 -0.484375 0.875q0 0.328125 0.203125 0.59375q0.203125 0.265625 0.640625 0.4375q0.25 0.09375 1.46875 0.4375q1.765625 0.46875 2.46875 0.765625q0.703125 0.296875 1.09375 0.875q0.40625 0.578125 0.40625 1.4375q0 0.828125 -0.484375 1.578125q-0.484375 0.734375 -1.40625 1.140625q-0.921875 0.390625 -2.078125 0.390625q-1.921875 0 -2.9375 -0.796875q-1.0 -0.796875 -1.28125 -2.359375zm13.65625 1.4375l0.234375 1.484375q-0.703125 0.140625 -1.265625 0.140625q-0.90625 0 -1.40625 -0.28125q-0.5 -0.296875 -0.703125 -0.75q-0.203125 -0.46875 -0.203125 -1.984375l0 -5.65625l-1.234375 0l0 -1.3125l1.234375 0l0 -2.4375l1.65625 -1.0l0 3.4375l1.6875 0l0 1.3125l-1.6875 0l0 5.75q0 0.71875 0.078125 0.921875q0.09375 0.203125 0.296875 0.328125q0.203125 0.125 0.578125 0.125q0.265625 0 0.734375 -0.078125zm1.1364136 -2.875l1.6875 -0.140625q0.125 1.015625 0.5625 1.671875q0.4375 0.65625 1.359375 1.0625q0.9375 0.40625 2.09375 0.40625q1.03125 0 1.8125 -0.3125q0.796875 -0.3125 1.1875 -0.84375q0.390625 -0.53125 0.390625 -1.15625q0 -0.640625 -0.375 -1.109375q-0.375 -0.484375 -1.234375 -0.8125q-0.546875 -0.21875 -2.421875 -0.65625q-1.875 -0.453125 -2.625 -0.859375q-0.96875 -0.515625 -1.453125 -1.265625q-0.46875 -0.75 -0.46875 -1.6875q0 -1.03125 0.578125 -1.921875q0.59375 -0.90625 1.703125 -1.359375q1.125 -0.46875 2.5 -0.46875q1.515625 0 2.671875 0.484375q1.15625 0.484375 1.765625 1.4375q0.625 0.9375 0.671875 2.140625l-1.71875 0.125q-0.140625 -1.28125 -0.953125 -1.9375q-0.796875 -0.671875 -2.359375 -0.671875q-1.625 0 -2.375 0.609375q-0.75 0.59375 -0.75 1.4375q0 0.734375 0.53125 1.203125q0.515625 0.46875 2.703125 0.96875q2.203125 0.5 3.015625 0.875q1.1875 0.546875 1.75 1.390625q0.578125 0.828125 0.578125 1.921875q0 1.09375 -0.625 2.0625q-0.625 0.953125 -1.796875 1.484375q-1.15625 0.53125 -2.609375 0.53125q-1.84375 0 -3.09375 -0.53125q-1.25 -0.546875 -1.96875 -1.625q-0.703125 -1.078125 -0.734375 -2.453125zm12.5060425 -2.25q0 -3.390625 1.8125 -5.296875q1.828125 -1.921875 4.703125 -1.921875q1.875 0 3.390625 0.90625q1.515625 0.890625 2.296875 2.5q0.796875 1.609375 0.796875 3.65625q0 2.0625 -0.84375 3.703125q-0.828125 1.625 -2.359375 2.46875q-1.53125 0.84375 -3.296875 0.84375q-1.921875 0 -3.4375 -0.921875q-1.5 -0.9375 -2.28125 -2.53125q-0.78125 -1.609375 -0.78125 -3.40625zm1.859375 0.03125q0 2.453125 1.3125 3.875q1.328125 1.40625 3.3125 1.40625q2.03125 0 3.34375 -1.421875q1.3125 -1.4375 1.3125 -4.0625q0 -1.65625 -0.5625 -2.890625q-0.546875 -1.234375 -1.640625 -1.921875q-1.078125 -0.6875 -2.421875 -0.6875q-1.90625 0 -3.28125 1.3125q-1.375 1.3125 -1.375 4.390625zm12.5896 2.21875l1.6875 -0.140625q0.125 1.015625 0.5625 1.671875q0.4375 0.65625 1.359375 1.0625q0.9375 0.40625 2.09375 0.40625q1.03125 0 1.8125 -0.3125q0.796875 -0.3125 1.1875 -0.84375q0.390625 -0.53125 0.390625 -1.15625q0 -0.640625 -0.375 -1.109375q-0.375 -0.484375 -1.234375 -0.8125q-0.546875 -0.21875 -2.421875 -0.65625q-1.875 -0.453125 -2.625 -0.859375q-0.96875 -0.515625 -1.453125 -1.265625q-0.46875 -0.75 -0.46875 -1.6875q0 -1.03125 0.578125 -1.921875q0.59375 -0.90625 1.703125 -1.359375q1.125 -0.46875 2.5 -0.46875q1.515625 0 2.671875 0.484375q1.15625 0.484375 1.765625 1.4375q0.625 0.9375 0.671875 2.140625l-1.71875 0.125q-0.140625 -1.28125 -0.953125 -1.9375q-0.796875 -0.671875 -2.359375 -0.671875q-1.625 0 -2.375 0.609375q-0.75 0.59375 -0.75 1.4375q0 0.734375 0.53125 1.203125q0.515625 0.46875 2.703125 0.96875q2.203125 0.5 3.015625 0.875q1.1875 0.546875 1.75 1.390625q0.578125 0.828125 0.578125 1.921875q0 1.09375 -0.625 2.0625q-0.625 0.953125 -1.796875 1.484375q-1.15625 0.53125 -2.609375 0.53125q-1.84375 0 -3.09375 -0.53125q-1.25 -0.546875 -1.96875 -1.625q-0.703125 -1.078125 -0.734375 -2.453125z" fill-rule="nonzero"></path><path fill="#000000" d="m657.32263 518.92l0 -13.59375l4.6875 0q1.578125 0 2.421875 0.1875q1.15625 0.265625 1.984375 0.96875q1.078125 0.921875 1.609375 2.34375q0.53125 1.40625 0.53125 3.21875q0 1.546875 -0.359375 2.75q-0.359375 1.1875 -0.921875 1.984375q-0.5625 0.78125 -1.234375 1.234375q-0.671875 0.4375 -1.625 0.671875q-0.953125 0.234375 -2.1875 0.234375l-4.90625 0zm1.796875 -1.609375l2.90625 0q1.34375 0 2.109375 -0.25q0.765625 -0.25 1.21875 -0.703125q0.640625 -0.640625 1.0 -1.71875q0.359375 -1.078125 0.359375 -2.625q0 -2.125 -0.703125 -3.265625q-0.703125 -1.15625 -1.703125 -1.546875q-0.71875 -0.28125 -2.328125 -0.28125l-2.859375 0l0 10.390625zm11.597961 1.609375l0 -13.59375l5.109375 0q1.546875 0 2.484375 0.40625q0.953125 0.40625 1.484375 1.265625q0.53125 0.859375 0.53125 1.796875q0 0.875 -0.46875 1.65625q-0.46875 0.765625 -1.4375 1.234375q1.234375 0.359375 1.890625 1.234375q0.671875 0.875 0.671875 2.0625q0 0.953125 -0.40625 1.78125q-0.390625 0.8125 -0.984375 1.265625q-0.59375 0.4375 -1.5 0.671875q-0.890625 0.21875 -2.1875 0.21875l-5.1875 0zm1.796875 -7.890625l2.9375 0q1.203125 0 1.71875 -0.15625q0.6875 -0.203125 1.03125 -0.671875q0.359375 -0.46875 0.359375 -1.1875q0 -0.671875 -0.328125 -1.1875q-0.328125 -0.515625 -0.9375 -0.703125q-0.59375 -0.203125 -2.0625 -0.203125l-2.71875 0l0 4.109375zm0 6.28125l3.390625 0q0.875 0 1.21875 -0.0625q0.625 -0.109375 1.046875 -0.359375q0.421875 -0.265625 0.6875 -0.765625q0.265625 -0.5 0.265625 -1.140625q0 -0.765625 -0.390625 -1.328125q-0.390625 -0.5625 -1.078125 -0.78125q-0.6875 -0.234375 -1.984375 -0.234375l-3.15625 0l0 4.671875zm18.818542 0l0 1.609375l-8.984375 0q-0.015625 -0.609375 0.1875 -1.15625q0.34375 -0.921875 1.09375 -1.8125q0.765625 -0.890625 2.1875 -2.0625q2.21875 -1.8125 3.0 -2.875q0.78125 -1.0625 0.78125 -2.015625q0 -0.984375 -0.71875 -1.671875q-0.703125 -0.6875 -1.84375 -0.6875q-1.203125 0 -1.9375 0.734375q-0.71875 0.71875 -0.71875 2.0l-1.71875 -0.171875q0.171875 -1.921875 1.328125 -2.921875q1.15625 -1.015625 3.09375 -1.015625q1.953125 0 3.09375 1.09375q1.140625 1.078125 1.140625 2.6875q0 0.8125 -0.34375 1.609375q-0.328125 0.78125 -1.109375 1.65625q-0.765625 0.859375 -2.5625 2.390625q-1.5 1.265625 -1.9375 1.71875q-0.421875 0.4375 -0.703125 0.890625l6.671875 0z" fill-rule="nonzero"></path></g></svg>

