<?xml version="1.0" encoding="UTF-8" standalone="no"?>
<svg
   xmlns:dc="http://purl.org/dc/elements/1.1/"
   xmlns:cc="http://creativecommons.org/ns#"
   xmlns:rdf="http://www.w3.org/1999/02/22-rdf-syntax-ns#"
   xmlns:svg="http://www.w3.org/2000/svg"
   xmlns="http://www.w3.org/2000/svg"
   xmlns:sodipodi="http://sodipodi.sourceforge.net/DTD/sodipodi-0.dtd"
   xmlns:inkscape="http://www.inkscape.org/namespaces/inkscape"
   version="1.0"
   width="256.000000pt"
   height="256.000000pt"
   viewBox="0 0 256.000000 256.000000"
   preserveAspectRatio="xMidYMid meet"
   id="svg2"
   inkscape:version="0.48.4 r9939"
   sodipodi:docname="Files_icon_3.svg"
   inkscape:export-filename="/home/maxi/istSOSweb/Amoeba/amoeba/img/features/documentation.png"
   inkscape:export-xdpi="90"
   inkscape:export-ydpi="90">
  <defs
     id="defs18" />
  <sodipodi:namedview
     pagecolor="#ffffff"
     bordercolor="#666666"
     borderopacity="1"
     objecttolerance="10"
     gridtolerance="10"
     guidetolerance="10"
     inkscape:pageopacity="0"
     inkscape:pageshadow="2"
     inkscape:window-width="1855"
     inkscape:window-height="1056"
     id="namedview16"
     showgrid="false"
     inkscape:zoom="2.6516504"
     inkscape:cx="225.48135"
     inkscape:cy="143.37512"
     inkscape:window-x="65"
     inkscape:window-y="1104"
     inkscape:window-maximized="1"
     inkscape:current-layer="svg2" />
  <metadata
     id="metadata4">
Created by potrace 1.12, written by Peter Selinger 2001-2015
<rdf:RDF>
  <cc:Work
     rdf:about="">
    <dc:format>image/svg+xml</dc:format>
    <dc:type
       rdf:resource="http://purl.org/dc/dcmitype/StillImage" />
    <dc:title></dc:title>
  </cc:Work>
</rdf:RDF>
</metadata>
  <g
     transform="translate(0.000000,256.000000) scale(0.100000,-0.100000)"
     id="g6"
     stroke="none"
     fill="#000000"
     style="fill:#9cce5f;fill-opacity:1">
    <path
       d="M1065 2544 c-350 -63 -657 -263 -849 -552 -340 -511 -274 -1185 159 -1617 432 -433 1106 -499 1617 -159 587 390 745 1186 352 1776 -162 243 -419 433 -699 516 -174 52 -410 66 -580 36z m750 -535 c8 -12 205 -1124 205 -1156 0 -32 -18 -38 -181 -67 -169 -30 -192 -31 -209 -11 -7 8 -56 263 -110 567 l-98 553 -1 -553 c-1 -361 -5 -560 -11 -573 -10 -18 -23 -19 -193 -19 -129 0 -187 4 -195 12 -9 9 -12 157 -12 605 0 575 1 593 19 603 11 6 92 10 190 10 140 0 172 -3 185 -16 9 -9 21 -12 28 -7 18 11 285 61 335 62 23 1 45 -4 48 -10z m-883 -46 c17 -15 18 -47 18 -599 0 -516 -2 -584 -16 -598 -13 -13 -45 -16 -193 -16 -124 0 -181 4 -189 12 -9 9 -12 157 -12 605 0 553 1 593 18 602 9 6 90 11 186 11 144 0 172 -2 188 -17z m1073 -1343 l0 -75 -725 0 -725 0 -3 64 c-2 35 -1 70 2 78 5 11 126 13 728 11 l723 -3 0 -75z"
       id="path8"
       style="fill:#9cce5f;fill-opacity:1" />
    <path
       d="M1625 1884 c-106 -21 -112 -23 -119 -39 -5 -15 57 -385 69 -404 9 -15 54 -13 159 7 58 11 92 23 99 34 8 12 2 66 -22 205 -18 103 -38 194 -43 201 -13 15 -51 14 -143 -4z"
       id="path10"
       style="fill:#9cce5f;fill-opacity:1" />
    <path
       d="M1090 1850 c-19 -19 -20 -33 -20 -209 0 -159 3 -192 16 -205 12 -13 39 -16 124 -16 60 0 115 3 124 6 14 5 16 34 16 215 0 196 -1 209 -19 219 -11 5 -65 10 -120 10 -88 0 -104 -3 -121 -20z"
       id="path12"
       style="fill:#9cce5f;fill-opacity:1" />
    <path
       d="M616 1854 c-13 -13 -16 -46 -16 -205 0 -112 4 -198 10 -210 10 -17 22 -19 125 -19 62 0 120 3 129 6 14 5 16 34 16 215 0 196 -1 209 -19 219 -11 5 -67 10 -125 10 -82 0 -108 -3 -120 -16z"
       id="path14"
       style="fill:#9cce5f;fill-opacity:1" />
  </g>
  <path
     style="fill:#7ca34c;fill-opacity:1;stroke:none"
     d="m 180.41593,54.766837 75.42473,82.967193 -38.91916,70.29584 -99.86233,48.57352 -60.943176,-55.2109 145.117176,0.6034 -0.30171,-15.38664 -139.384886,-0.3017 -5.732279,-6.63738 37.108964,-2.71528 -1.206796,-117.360869 13.274757,11.766256 0.60339,48.573523 30.47158,-0.3017 2.26275,-55.663446 7.20306,-0.490261 10.22005,54.117237 31.03727,-5.61914 z"
     id="path3837"
     inkscape:connector-curvature="0"
     sodipodi:nodetypes="ccccccccccccccccccc" />
  <path
     style="fill:#ff2c2c;fill-opacity:1;fill-rule:nonzero;stroke:none"
     d="m 73.972633,225.54269 c -4.507463,-0.44474 -4.940482,-0.66619 -5.237852,-2.67867 -0.635089,-4.29803 -0.970377,-31.39574 -0.958117,-77.43424 0.01384,-51.988614 0.266341,-67.107536 1.164755,-69.742819 0.626537,-1.837798 1.020448,-1.960505 8.048203,-2.50708 7.388098,-0.574601 35.329488,-0.269387 37.232118,0.406699 1.93931,0.689128 2.8603,1.796109 3.31377,3.983018 0.8017,3.866205 1.19828,38.547982 0.98727,86.339232 -0.21623,48.97543 -0.43713,56.89126 -1.65678,59.3686 -1.14833,2.33249 -1.73081,2.39953 -21.774444,2.50599 -9.748645,0.0518 -19.252161,-0.0566 -21.118923,-0.24073 l 0,0 z m 33.916747,-83.71164 c 0.6477,-0.32159 1.25486,-1.01905 1.46338,-1.681 0.50512,-1.6036 0.86074,-23.09518 0.62141,-37.55534 -0.23274,-14.061783 -0.35597,-14.720378 -2.88041,-15.393893 -5.87083,-1.566324 -26.04845,-1.457808 -29.170915,0.156881 -2.610618,1.350003 -2.978235,4.50088 -2.991392,25.639452 -0.0094,15.11059 0.395494,24.5719 1.150034,26.87295 0.824431,2.51419 2.08249,2.69467 18.06726,2.59185 10.184733,-0.0655 12.848223,-0.1878 13.740633,-0.6309 z"
     id="path3784"
     inkscape:connector-curvature="0"
     transform="scale(0.8,0.8)" />
  <path
     style="fill:#ff2c2c;fill-opacity:1;fill-rule:nonzero;stroke:none"
     d="m 132.71242,225.54258 c -4.03999,-0.3728 -4.85721,-0.71186 -5.15635,-2.13936 -0.69483,-3.31576 -0.96963,-25.41957 -0.96469,-77.59632 0.006,-58.539625 0.18901,-68.54305 1.29638,-70.684465 0.99651,-1.927051 2.67056,-2.077798 23.20665,-2.089748 10.05978,-0.0059 19.25934,0.127976 20.44347,0.2974 1.22371,0.175086 2.73358,0.702058 3.49817,1.22092 1.89164,1.283702 2.98721,1.471006 4.66876,0.798187 1.84182,-0.736953 15.63584,-3.580841 27.20055,-5.60789 7.16735,-1.256285 9.81166,-1.560481 13.80343,-1.587923 5.35854,-0.03684 5.96949,0.153528 6.28414,1.958085 0.0983,0.563727 0.95835,5.019069 1.91123,9.900759 5.85924,30.017105 23.25672,129.758225 23.25858,133.343225 0.001,2.30048 -0.96265,3.25918 -4.42811,4.40453 -5.34727,1.76729 -30.46038,6.20913 -37.06457,6.55573 -5.6453,0.29627 -6.40884,-0.0354 -7.27436,-3.15963 -1.69055,-6.1024 -9.8676,-49.93092 -19.29963,-103.44489 -3.2354,-18.35649 -6.01944,-33.71485 -6.18675,-34.129686 -0.16732,-0.414836 -0.40891,26.398656 -0.53688,59.585536 -0.12797,33.18687 -0.40547,64.73601 -0.61666,70.10919 -0.41473,10.55199 -0.53657,11.1191 -2.58227,12.01955 -1.23405,0.54318 -36.00612,0.75017 -41.46109,0.2468 l 0,0 z m 33.91566,-83.62141 c 1.86879,-0.76504 1.93239,-1.52026 2.0952,-24.88097 0.16478,-23.642229 -0.0373,-27.541157 -1.5032,-29.006223 -1.32176,-1.320994 -5.5026,-1.773459 -16.50279,-1.785991 -11.11192,-0.01266 -12.18467,0.175806 -14.55549,2.557146 -1.33757,1.343506 -1.61826,1.915353 -1.98638,4.046792 -0.55992,3.242012 -0.58467,38.524786 -0.0301,42.971096 0.58932,4.72528 1.47768,5.72757 5.63542,6.35816 3.29885,0.50033 25.51565,0.28516 26.84738,-0.26001 z m 42.11785,-1.4178 c 10.36577,-1.52448 18.22962,-3.55921 19.94167,-5.15981 1.42704,-1.33413 1.20043,-5.64893 -1.03529,-19.71304 -1.15959,-7.2946 -5.20257,-27.68311 -5.94997,-30.005338 -0.91057,-2.829269 -1.50631,-3.076029 -6.87404,-2.847279 -5.92221,0.25238 -21.91185,3.270112 -24.8882,4.697162 -2.02572,0.971257 -2.13525,1.802212 -1.16124,8.810363 1.77939,12.803012 6.20049,37.836692 7.43477,42.097992 0.39678,1.36989 0.83855,2.10862 1.39521,2.33312 1.31113,0.52876 6.80771,0.42355 11.13709,-0.21317 l 0,0 z"
     id="path3786"
     inkscape:connector-curvature="0"
     transform="scale(0.8,0.8)" />
  <path
     inkscape:connector-curvature="0"
     d="m 116.915,255.99527 c 3.57969,0.35156 5.66632,-0.0513 9.26697,-0.003 3.60066,0.0487 7.20687,-0.0546 10.80872,-0.31077 3.60186,-0.25615 7.19937,-0.66519 10.78264,-1.22805 3.58328,-0.56287 7.15232,-1.27957 10.69724,-2.15105 3.54492,-0.87149 7.06573,-1.89776 10.55252,-3.07976 3.48679,-1.18201 6.93957,-2.51975 10.34846,-4.01419 3.40889,-1.49443 6.77388,-3.14555 10.08508,-4.95432 3.31121,-1.80876 6.56863,-3.77517 9.76238,-5.90017 3.66875,-2.4375 7.16992,-5.03359 10.50054,-7.77334 3.33061,-2.73975 6.49067,-5.62314 9.47719,-8.63525 2.98653,-3.01211 5.79952,-6.15293 8.43599,-9.40752 2.63648,-3.25459 5.09644,-6.62295 7.37691,-10.09014 2.28046,-3.46719 4.38144,-7.0332 6.29995,-10.6831 1.9185,-3.64991 3.65454,-7.38369 5.20512,-11.18643 1.55059,-3.80273 2.91573,-7.67441 4.09243,-11.6001 1.17671,-3.92568 2.165,-7.90537 2.96187,-11.92412 0.79688,-4.01875 2.00574,-11.99865 2.41683,-16.08058 l -107.55802,79.23786 z"
     id="path8-4"
     style="fill:#7ca34c;fill-opacity:1;stroke:none"
     sodipodi:nodetypes="cssssssscssssssssccc" />
  <path
     style="fill:#ffffff;fill-opacity:1;fill-rule:nonzero;stroke:none"
     d="m 69.193911,244.53385 c -0.327542,-8.53446 -0.147283,-10.0753 1.252013,-10.70215 1.22116,-0.54704 103.462126,-0.84062 150.058096,-0.43088 l 29.88704,0.26281 0,9.0053 0,9.00531 -90.46155,0 -90.46156,0 -0.274039,-7.14039 z"
     id="path2990"
     inkscape:connector-curvature="0"
     transform="scale(0.8,0.8)" />
  <path
     style="fill:#ffffff;fill-opacity:1;fill-rule:nonzero;stroke:none"
     d="m 69.193911,244.53385 c -0.327542,-8.53446 -0.147283,-10.0753 1.252013,-10.70215 1.214565,-0.54409 106.866526,-0.84438 151.566586,-0.4308 l 28.37855,0.26258 0,9.00538 0,9.00538 -90.46155,0 -90.46156,0 -0.274039,-7.14039 z"
     id="path2992"
     inkscape:connector-curvature="0"
     transform="scale(0.8,0.8)" />
  <path
     style="fill:#ffffff;fill-opacity:1;fill-rule:nonzero;stroke:none"
     d="m 69.1851,244.55922 c -0.327497,-8.51029 -0.140694,-10.09968 1.260824,-10.72752 1.204818,-0.53972 112.056756,-0.85009 153.829326,-0.43069 l 26.11581,0.2622 0,9.00551 0,9.00552 -90.46608,0 -90.466077,0 -0.273803,-7.11502 z"
     id="path2994"
     inkscape:connector-curvature="0"
     transform="scale(0.8,0.8)"
     inkscape:export-xdpi="90"
     inkscape:export-ydpi="90" />
</svg>
